<svg xmlns="http://www.w3.org/2000/svg" xmlns:xlink="http://www.w3.org/1999/xlink" width="375" zoomAndPan="magnify" viewBox="0 0 375 374.999991" height="374.999991" preserveAspectRatio="xMidYMid meet" version="1.0"><defs><clipPath id="id1"><path d="M 0 2.046875 L 375 2.046875 L 375 368 L 0 368 Z M 0 2.046875 " clip-rule="nonzero"/></clipPath><clipPath id="id2"><path d="M 0 2.046875 L 375 2.046875 L 375 368 L 0 368 Z M 0 2.046875 " clip-rule="nonzero"/></clipPath></defs><rect x="-37.5" width="450" fill="rgb(100%, 100%, 100%)" y="-37.499999" height="449.999989" fill-opacity="1"/><rect x="-37.5" width="450" fill="rgb(100%, 100%, 100%)" y="-37.499999" height="449.999989" fill-opacity="1"/><rect x="-37.5" width="450" fill="rgb(100%, 100%, 100%)" y="-37.499999" height="449.999989" fill-opacity="1"/><g clip-path="url(#id1)"><path fill="rgb(72.938538%, 35.289001%, 52.938843%)" d="M 370.992188 61.851562 C 369.34375 61.371094 367.582031 61.785156 365.914062 62.207031 C 355.398438 64.875 344.886719 67.546875 334.378906 70.214844 C 332.589844 66.429688 330.378906 62.855469 327.632812 59.691406 C 326.910156 58.863281 326.15625 58.066406 325.359375 57.316406 C 323.761719 55.765625 322.015625 54.375 320.152344 53.167969 C 317.847656 51.6875 315.363281 50.492188 312.761719 49.6875 C 312.5625 35.78125 312.359375 21.863281 312.15625 7.949219 C 312.144531 6.421875 312.046875 4.707031 310.9375 3.648438 C 309.332031 2.097656 306.664062 2.851562 304.675781 3.890625 C 288.902344 12.085938 280.230469 30.910156 263.707031 37.464844 C 259.03125 39.3125 253.96875 40.0625 249.332031 42.007812 C 242.953125 44.691406 237.699219 49.613281 234.101562 55.546875 C 232.878906 57.566406 231.851562 59.699219 231.03125 61.902344 C 230.65625 62.90625 230.324219 63.929688 230.035156 64.964844 C 228.933594 68.855469 228.417969 72.890625 228.394531 76.964844 C 219.992188 74.832031 211.058594 80.148438 203.703125 85.253906 C 192.695312 92.878906 181.695312 100.5 170.6875 108.125 C 165.089844 112.007812 159.296875 116.09375 155.976562 122.042969 C 153.738281 126.058594 152.996094 131.179688 154.339844 135.457031 C 147.035156 144.464844 140.777344 154.304688 135.714844 164.734375 C 131.835938 172.738281 128.332031 181.503906 121.144531 186.738281 C 118.113281 188.949219 114.609375 190.382812 111.261719 192.078125 C 96.683594 199.46875 84.957031 212.34375 78.929688 227.550781 C 77.695312 230.671875 76.699219 233.863281 75.855469 237.113281 C 74.378906 242.734375 73.363281 248.488281 72.359375 254.214844 C 71.292969 260.269531 70.972656 267.964844 75.976562 271.191406 C 75.605469 273.203125 75.207031 275.210938 75.066406 277.238281 C 74.753906 281.828125 76.699219 287.339844 81.199219 288.289062 C 83.960938 288.867188 86.78125 287.484375 88.992188 285.722656 C 90.636719 284.402344 92.082031 282.867188 93.414062 281.234375 C 96.222656 282.78125 99.691406 283.34375 102.890625 282.851562 C 106.519531 282.296875 110.214844 280.648438 113.726562 281.734375 C 117.457031 282.898438 119.570312 286.703125 121.863281 289.863281 C 125.488281 294.867188 130.507812 298.933594 136.359375 300.921875 C 139.285156 301.917969 142.417969 302.355469 145.503906 302.183594 C 138.929688 320.085938 120.308594 333.101562 100.960938 335.40625 C 78.851562 338.023438 56.71875 328.992188 38.800781 315.695312 C 38.402344 315.40625 38 315.105469 37.605469 314.800781 C 32.769531 311.125 28.054688 307.082031 22.386719 304.902344 C 16.714844 302.730469 9.6875 302.828125 5.210938 306.929688 C 0.769531 310.996094 0.0234375 318.011719 2.023438 323.695312 C 4.023438 329.382812 8.28125 333.964844 12.75 338.007812 C 40.828125 363.425781 82.167969 373.253906 118.667969 363.171875 C 140.433594 357.164062 160.050781 344.183594 174.6875 327 C 176.6875 324.667969 178.585938 322.25 180.386719 319.761719 C 189.726562 324.773438 199.730469 328.335938 209.757812 326.734375 C 210.617188 326.605469 211.476562 326.429688 212.335938 326.210938 C 216.921875 325.0625 221.15625 322.808594 225.285156 320.492188 C 244.679688 309.605469 264.082031 295.46875 271.699219 274.5625 C 278.367188 256.257812 275.097656 234.9375 284.367188 217.820312 C 290.53125 206.449219 302.15625 196.664062 301.371094 183.757812 C 301.199219 180.988281 300.4375 178.273438 300.566406 175.503906 C 300.902344 168.492188 306.667969 163.1875 311.339844 157.941406 C 314.800781 154.046875 317.910156 148.816406 317.816406 143.894531 C 320.65625 144.160156 323.550781 143.917969 326.371094 143.257812 C 331.359375 142.082031 336.117188 139.582031 339.949219 136.175781 C 341.457031 134.828125 342.839844 133.359375 344.101562 131.800781 C 349.25 125.445312 352.390625 117.492188 354.109375 109.4375 C 354.953125 105.476562 355.496094 101.433594 356.949219 97.664062 C 360.207031 89.164062 367.648438 83.03125 372.4375 75.296875 C 373.820312 73.078125 375.007812 70.601562 375 67.988281 C 374.992188 65.367188 373.496094 62.601562 370.992188 61.851562 " fill-opacity="1" fill-rule="nonzero"/></g><path fill="rgb(96.859741%, 80.389404%, 81.568909%)" d="M 344.101562 131.800781 C 342.839844 133.359375 341.457031 134.828125 339.949219 136.175781 C 336.117188 139.582031 331.359375 142.082031 326.371094 143.257812 C 323.324219 142.308594 320.273438 141.417969 317.203125 140.566406 C 310.816406 138.773438 304.375 137.136719 297.898438 135.675781 C 295.785156 135.199219 293.496094 134.75 291.527344 135.652344 C 287.9375 137.292969 287.09375 142.566406 283.429688 144.03125 C 280.574219 145.164062 276.851562 143.585938 274.535156 145.589844 C 272.308594 147.519531 273.046875 151.429688 270.980469 153.519531 C 268.644531 155.890625 264.71875 154.398438 261.554688 153.371094 C 256.789062 151.835938 251.566406 151.789062 246.769531 153.238281 C 243.132812 154.332031 239.789062 156.246094 236.597656 158.328125 C 229.667969 162.832031 223.277344 168.164062 217.597656 174.175781 C 216.363281 175.496094 215.078125 177.039062 215.140625 178.851562 C 215.277344 182.355469 219.945312 183.53125 223.429688 183.160156 C 226.796875 182.796875 230.109375 181.953125 233.230469 180.644531 C 236.640625 179.21875 239.867188 177.242188 243.507812 176.621094 C 247.136719 175.992188 251.46875 177.203125 253.011719 180.554688 C 255.253906 185.410156 250.511719 191.304688 252.449219 196.292969 C 253.488281 198.953125 256.28125 200.796875 256.789062 203.609375 C 257.617188 208.160156 252.046875 211.273438 247.429688 211.433594 C 242.800781 211.59375 237.753906 210.476562 233.832031 212.945312 C 231.351562 214.515625 229.867188 217.238281 228.636719 219.910156 C 224.492188 228.917969 226.402344 237.585938 218.441406 244.96875 C 213.929688 249.152344 208.457031 252.179688 203.828125 256.234375 C 189.15625 269.078125 186.765625 285.414062 191.710938 300.351562 C 194.992188 310.234375 201.472656 319.496094 209.757812 326.734375 C 199.730469 328.335938 189.726562 324.773438 180.386719 319.761719 C 178.585938 322.25 176.6875 324.667969 174.6875 327 C 174.511719 326.945312 174.335938 326.894531 174.160156 326.847656 C 168.800781 325.421875 162.6875 325.785156 158.269531 329.128906 C 156.628906 330.371094 155.230469 332.003906 153.335938 332.796875 C 150.605469 333.957031 147.496094 333.136719 144.539062 332.789062 C 136.125 331.800781 127.3125 335.097656 121.609375 341.371094 C 118.773438 344.484375 115.902344 348.65625 111.695312 348.433594 C 107.523438 348.210938 104.953125 343.703125 101.113281 342.046875 C 92.941406 338.53125 84.019531 349.058594 75.53125 346.382812 C 71.515625 345.109375 69.011719 341.265625 66.109375 338.210938 C 63.203125 335.160156 58.527344 332.683594 54.933594 334.894531 C 53.109375 336.015625 51.695312 338.28125 49.5625 338.113281 C 48.066406 337.992188 46.972656 336.675781 46.136719 335.429688 C 42.707031 330.304688 40.34375 324.472656 39.238281 318.410156 C 39.078125 317.511719 38.929688 316.605469 38.800781 315.695312 C 56.71875 328.992188 78.851562 338.023438 100.960938 335.40625 C 120.308594 333.101562 138.929688 320.085938 145.503906 302.183594 C 142.417969 302.355469 139.285156 301.917969 136.359375 300.921875 C 130.507812 298.933594 125.488281 294.867188 121.863281 289.863281 C 119.570312 286.703125 117.457031 282.898438 113.726562 281.734375 C 110.214844 280.648438 106.519531 282.296875 102.890625 282.851562 C 99.691406 283.34375 96.222656 282.78125 93.417969 281.234375 C 92.082031 282.867188 90.636719 284.402344 88.992188 285.722656 C 86.78125 287.484375 83.960938 288.867188 81.199219 288.289062 C 76.699219 287.339844 74.753906 281.828125 75.066406 277.238281 C 75.207031 275.210938 75.605469 273.203125 75.976562 271.191406 C 70.972656 267.964844 71.292969 260.269531 72.359375 254.214844 C 73.363281 248.488281 74.378906 242.734375 75.855469 237.113281 C 80.8125 236.996094 85.691406 235.550781 90.445312 234.015625 C 95.699219 232.316406 101.128906 230.359375 104.933594 226.351562 C 107.78125 223.34375 109.460938 219.453125 111.355469 215.769531 C 114.84375 208.996094 119.246094 202.691406 124.414062 197.089844 C 126.1875 195.167969 128.117188 193.285156 130.542969 192.296875 C 136.664062 189.8125 143.796875 193.773438 150.164062 191.988281 C 157.214844 190.011719 160.46875 182.074219 162.761719 175.109375 C 165.796875 165.863281 168.839844 156.613281 171.875 147.367188 C 172.800781 144.550781 173.707031 141.40625 172.464844 138.722656 C 171.242188 136.078125 168.304688 134.703125 166.484375 132.417969 C 163.097656 128.132812 165.152344 120.765625 170.269531 118.859375 C 174.304688 117.355469 178.738281 118.988281 182.929688 119.945312 C 188.949219 121.320312 195.457031 121.230469 201.097656 118.722656 C 206.738281 116.214844 211.371094 111.058594 212.34375 104.953125 C 212.753906 102.417969 212.574219 99.65625 213.941406 97.476562 C 216.226562 93.84375 221.714844 93.753906 225.496094 95.765625 C 229.277344 97.78125 232.019531 101.28125 235.351562 103.976562 C 236.476562 104.890625 237.796875 105.753906 239.25 105.695312 C 241.457031 105.597656 243.058594 103.289062 243.167969 101.078125 C 243.292969 98.867188 242.320312 96.753906 241.371094 94.75 C 236.847656 85.214844 232.132812 75.1875 230.035156 64.964844 C 230.324219 63.929688 230.65625 62.90625 231.03125 61.902344 C 231.851562 59.699219 232.878906 57.566406 234.101562 55.546875 C 244.722656 65.261719 258.699219 72.425781 272.746094 69.976562 C 277.324219 69.167969 281.695312 67.386719 286.296875 66.773438 C 290.523438 66.21875 294.828125 66.671875 299.070312 66.195312 C 307.5625 65.246094 315.347656 60.195312 320.152344 53.167969 C 322.015625 54.375 323.757812 55.765625 325.359375 57.316406 C 324.289062 60.484375 322.046875 63.660156 320.089844 66.429688 C 314.207031 74.742188 310.382812 84.507812 309.058594 94.617188 C 308.171875 101.355469 308.550781 108.734375 312.632812 114.171875 C 317.242188 120.296875 325.277344 122.445312 332.339844 125.429688 C 336.453125 127.167969 340.398438 129.308594 344.101562 131.800781 " fill-opacity="1" fill-rule="nonzero"/><g clip-path="url(#id2)"><path fill="rgb(72.938538%, 35.289001%, 52.938843%)" d="M 158.269531 329.128906 C 156.628906 330.371094 155.230469 332.003906 153.335938 332.796875 C 150.605469 333.957031 147.496094 333.136719 144.539062 332.789062 C 136.125 331.800781 127.3125 335.097656 121.609375 341.371094 C 118.773438 344.484375 115.902344 348.65625 111.695312 348.433594 C 107.523438 348.210938 104.953125 343.703125 101.113281 342.046875 C 92.941406 338.53125 84.019531 349.058594 75.53125 346.382812 C 71.515625 345.109375 69.011719 341.265625 66.109375 338.210938 C 63.203125 335.160156 58.527344 332.683594 54.933594 334.894531 C 53.109375 336.015625 51.695312 338.28125 49.5625 338.113281 C 48.066406 337.992188 46.972656 336.675781 46.136719 335.429688 C 42.707031 330.304688 40.34375 324.472656 39.238281 318.410156 C 39.078125 317.511719 38.929688 316.605469 38.800781 315.695312 C 38.402344 315.40625 38 315.105469 37.605469 314.800781 C 32.769531 311.125 28.054688 307.082031 22.386719 304.902344 C 16.714844 302.730469 9.6875 302.828125 5.210938 306.929688 C 0.769531 310.996094 0.0234375 318.011719 2.023438 323.695312 C 4.023438 329.382812 8.28125 333.964844 12.75 338.007812 C 40.828125 363.425781 82.167969 373.253906 118.667969 363.171875 C 140.433594 357.164062 160.050781 344.183594 174.6875 327 C 174.511719 326.945312 174.335938 326.894531 174.160156 326.847656 C 168.800781 325.421875 162.6875 325.785156 158.269531 329.128906 Z M 230.035156 64.964844 C 228.933594 68.855469 228.417969 72.890625 228.394531 76.964844 C 219.992188 74.832031 211.058594 80.148438 203.703125 85.253906 C 192.695312 92.878906 181.695312 100.5 170.6875 108.125 C 165.089844 112.007812 159.296875 116.09375 155.976562 122.042969 C 153.738281 126.058594 152.996094 131.179688 154.339844 135.457031 C 147.035156 144.464844 140.777344 154.304688 135.714844 164.734375 C 131.835938 172.738281 128.332031 181.503906 121.144531 186.738281 C 118.113281 188.949219 114.609375 190.382812 111.261719 192.078125 C 96.6875 199.46875 84.957031 212.34375 78.929688 227.550781 C 77.695312 230.671875 76.699219 233.863281 75.855469 237.113281 C 80.8125 236.996094 85.691406 235.550781 90.445312 234.015625 C 95.699219 232.316406 101.128906 230.359375 104.933594 226.351562 C 107.78125 223.34375 109.460938 219.453125 111.355469 215.769531 C 114.84375 208.996094 119.246094 202.691406 124.414062 197.089844 C 126.1875 195.167969 128.117188 193.285156 130.542969 192.296875 C 136.664062 189.8125 143.796875 193.773438 150.164062 191.988281 C 157.214844 190.011719 160.46875 182.074219 162.761719 175.109375 C 165.796875 165.863281 168.839844 156.613281 171.875 147.367188 C 172.800781 144.550781 173.707031 141.40625 172.464844 138.722656 C 171.242188 136.078125 168.304688 134.703125 166.484375 132.417969 C 163.097656 128.132812 165.152344 120.765625 170.269531 118.859375 C 174.304688 117.355469 178.738281 118.988281 182.929688 119.945312 C 188.949219 121.320312 195.457031 121.230469 201.097656 118.722656 C 206.738281 116.214844 211.371094 111.058594 212.34375 104.953125 C 212.753906 102.417969 212.574219 99.65625 213.941406 97.476562 C 216.226562 93.84375 221.714844 93.753906 225.496094 95.765625 C 229.277344 97.78125 232.019531 101.28125 235.351562 103.976562 C 236.476562 104.890625 237.796875 105.753906 239.25 105.695312 C 241.457031 105.597656 243.058594 103.289062 243.167969 101.078125 C 243.292969 98.867188 242.320312 96.753906 241.371094 94.75 C 236.847656 85.214844 232.132812 75.1875 230.035156 64.964844 Z M 312.15625 7.949219 C 312.144531 6.421875 312.046875 4.707031 310.9375 3.648438 C 309.332031 2.097656 306.664062 2.851562 304.675781 3.890625 C 288.902344 12.085938 280.230469 30.910156 263.707031 37.464844 C 259.03125 39.3125 253.96875 40.0625 249.332031 42.007812 C 242.953125 44.691406 237.699219 49.613281 234.101562 55.546875 C 244.722656 65.261719 258.699219 72.425781 272.746094 69.976562 C 277.324219 69.167969 281.695312 67.386719 286.296875 66.773438 C 290.523438 66.21875 294.828125 66.671875 299.070312 66.195312 C 307.5625 65.246094 315.347656 60.195312 320.152344 53.167969 C 317.847656 51.6875 315.363281 50.492188 312.761719 49.6875 C 312.5625 35.78125 312.359375 21.863281 312.15625 7.949219 Z M 317.203125 140.566406 C 310.816406 138.773438 304.375 137.136719 297.898438 135.675781 C 295.785156 135.199219 293.496094 134.75 291.527344 135.652344 C 287.9375 137.292969 287.09375 142.566406 283.429688 144.03125 C 280.574219 145.164062 276.851562 143.585938 274.535156 145.589844 C 272.308594 147.519531 273.046875 151.429688 270.980469 153.519531 C 268.644531 155.890625 264.71875 154.398438 261.554688 153.371094 C 256.789062 151.835938 251.566406 151.789062 246.769531 153.238281 C 243.132812 154.332031 239.789062 156.246094 236.597656 158.328125 C 229.667969 162.832031 223.277344 168.164062 217.597656 174.175781 C 216.363281 175.496094 215.078125 177.039062 215.140625 178.851562 C 215.277344 182.355469 219.945312 183.53125 223.429688 183.160156 C 226.796875 182.796875 230.109375 181.953125 233.230469 180.644531 C 236.640625 179.21875 239.867188 177.242188 243.507812 176.621094 C 247.136719 175.992188 251.46875 177.203125 253.011719 180.554688 C 255.253906 185.410156 250.511719 191.304688 252.449219 196.292969 C 253.488281 198.953125 256.28125 200.796875 256.789062 203.609375 C 257.617188 208.160156 252.046875 211.273438 247.429688 211.433594 C 242.800781 211.59375 237.753906 210.476562 233.832031 212.945312 C 231.351562 214.515625 229.867188 217.238281 228.636719 219.910156 C 224.492188 228.917969 226.402344 237.585938 218.441406 244.96875 C 213.929688 249.152344 208.457031 252.179688 203.828125 256.234375 C 189.15625 269.078125 186.765625 285.414062 191.710938 300.351562 C 194.992188 310.234375 201.472656 319.496094 209.757812 326.734375 C 210.617188 326.605469 211.476562 326.429688 212.335938 326.210938 C 216.921875 325.0625 221.15625 322.808594 225.285156 320.492188 C 244.679688 309.605469 264.082031 295.46875 271.699219 274.5625 C 278.367188 256.257812 275.097656 234.9375 284.367188 217.820312 C 290.53125 206.449219 302.15625 196.664062 301.371094 183.757812 C 301.199219 180.988281 300.4375 178.273438 300.566406 175.503906 C 300.902344 168.492188 306.667969 163.1875 311.339844 157.941406 C 314.800781 154.046875 317.910156 148.816406 317.816406 143.894531 C 320.65625 144.160156 323.550781 143.917969 326.371094 143.257812 C 323.324219 142.308594 320.273438 141.417969 317.203125 140.566406 Z M 375 67.988281 C 375.007812 70.601562 373.820312 73.078125 372.4375 75.296875 C 367.648438 83.03125 360.207031 89.164062 356.949219 97.664062 C 355.496094 101.433594 354.953125 105.476562 354.109375 109.4375 C 352.390625 117.492188 349.25 125.445312 344.101562 131.800781 C 340.398438 129.308594 336.453125 127.167969 332.339844 125.429688 C 325.277344 122.445312 317.242188 120.296875 312.632812 114.171875 C 308.550781 108.734375 308.171875 101.355469 309.058594 94.617188 C 310.382812 84.507812 314.207031 74.742188 320.089844 66.429688 C 322.046875 63.660156 324.289062 60.484375 325.359375 57.316406 C 326.15625 58.066406 326.910156 58.863281 327.632812 59.691406 C 330.378906 62.855469 332.589844 66.429688 334.378906 70.214844 C 344.886719 67.546875 355.398438 64.875 365.914062 62.207031 C 367.582031 61.785156 369.34375 61.371094 370.992188 61.851562 C 373.496094 62.601562 374.992188 65.367188 375 67.988281 " fill-opacity="1" fill-rule="nonzero"/></g><path fill="rgb(100%, 100%, 100%)" d="M 297.75 39.675781 L 299.839844 27.570312 C 300.066406 26.242188 300.300781 24.878906 300.074219 23.550781 C 299.851562 22.214844 299.078125 20.898438 297.832031 20.390625 C 296.53125 19.851562 294.992188 20.308594 293.882812 21.179688 C 292.761719 22.039062 291.984375 23.25 291.207031 24.425781 C 289.003906 27.746094 286.628906 30.949219 284.089844 34.019531 C 282.449219 36.007812 283.445312 38.980469 285.933594 39.65625 C 288.289062 40.300781 290.585938 41.179688 292.78125 42.253906 C 294.871094 43.273438 297.359375 41.972656 297.75 39.675781 Z M 362.652344 70.433594 C 363.390625 71.148438 363.382812 72.320312 363.257812 73.347656 C 362.640625 78.296875 360.335938 82.996094 356.90625 86.589844 C 355.445312 88.117188 352.921875 87.980469 351.628906 86.316406 C 350.109375 84.378906 348.382812 82.601562 346.488281 81.023438 C 344.464844 79.335938 345.015625 76.078125 347.460938 75.074219 C 351.21875 73.535156 354.972656 72 358.734375 70.457031 C 360.015625 69.933594 361.65625 69.46875 362.652344 70.433594 " fill-opacity="1" fill-rule="nonzero"/><path fill="rgb(96.859741%, 80.389404%, 81.568909%)" d="M 324.425781 83.535156 C 320.105469 80.824219 315.535156 80.332031 314.21875 82.429688 C 312.902344 84.53125 315.339844 88.433594 319.660156 91.144531 C 323.980469 93.859375 328.546875 94.351562 329.867188 92.253906 C 331.183594 90.152344 328.746094 86.246094 324.425781 83.535156 Z M 286.058594 62.457031 C 284.742188 64.558594 280.171875 64.058594 275.851562 61.347656 C 271.53125 58.636719 269.097656 54.734375 270.414062 52.636719 C 271.726562 50.535156 276.296875 51.027344 280.621094 53.742188 C 284.9375 56.453125 287.375 60.355469 286.058594 62.457031 " fill-opacity="1" fill-rule="nonzero"/><path fill="rgb(32.939148%, 32.939148%, 32.939148%)" d="M 251.300781 83.546875 C 242.0625 74.800781 226.316406 69.796875 213.804688 73.101562 C 212.875 73.347656 213.050781 74.585938 213.980469 74.648438 C 220.320312 75.070312 226.402344 75.101562 232.550781 76.972656 C 238.542969 78.792969 244.105469 81.84375 249.335938 85.238281 C 250.335938 85.882812 252.4375 84.628906 251.300781 83.546875 Z M 210.203125 63.53125 C 219.511719 64.441406 228.488281 65.957031 237.09375 69.808594 C 241.332031 71.707031 245.332031 74.074219 249.074219 76.828125 C 252.367188 79.25 255.230469 82.179688 258.492188 84.617188 C 259.09375 85.066406 260.648438 84.472656 260.140625 83.59375 C 255.695312 75.863281 246.101562 70.164062 238.179688 66.636719 C 229.519531 62.78125 219.757812 60.585938 210.277344 61.714844 C 209.09375 61.855469 208.90625 63.402344 210.203125 63.53125 Z M 331.589844 142.132812 C 327.585938 124.34375 313.773438 110.164062 296.730469 104.257812 C 295.710938 103.90625 294.695312 105.210938 295.886719 105.734375 C 311.785156 112.703125 323.351562 126.570312 328.96875 142.835938 C 329.371094 144.003906 331.875 143.402344 331.589844 142.132812 Z M 297.71875 110.414062 C 297.191406 109.90625 295.851562 110.4375 296.464844 111.136719 C 307.191406 123.464844 311.828125 138.90625 311.5 155.070312 C 311.480469 156.191406 313.660156 156.039062 313.8125 155.015625 C 316.222656 138.644531 309.496094 121.71875 297.71875 110.414062 Z M 285.96875 101.128906 C 291.609375 102.542969 294.808594 94.890625 289.84375 91.859375 L 277.316406 84.210938 C 272.351562 81.179688 267.019531 87.527344 270.855469 91.902344 L 275.113281 96.757812 C 275.109375 96.773438 275.105469 96.789062 275.101562 96.804688 C 269.394531 97.691406 264.113281 98.839844 261.03125 92.070312 C 260.683594 91.308594 259.089844 91.425781 258.988281 92.316406 C 258.527344 96.410156 261.96875 99.585938 265.632812 100.726562 C 268.480469 101.613281 271.738281 101.449219 274.675781 100.488281 C 274.703125 103.316406 275.5625 106.089844 277.535156 108.332031 C 280.4375 111.621094 287.488281 114.292969 290.722656 109.953125 C 291.046875 109.519531 290.445312 109.214844 290.097656 109.203125 C 285.933594 109.125 282.433594 108.964844 280.058594 104.941406 C 278.949219 103.054688 278.417969 101.136719 278.234375 99.171875 C 278.328125 99.199219 278.417969 99.238281 278.511719 99.261719 Z M 264.164062 72.894531 C 267.828125 75.917969 273.203125 75.855469 276.898438 72.957031 C 278.242188 71.902344 276.730469 70.230469 275.367188 70.964844 C 272.324219 72.59375 268.304688 72.574219 265.785156 69.957031 C 264.613281 68.742188 263.898438 67.160156 263.675781 65.488281 C 263.46875 63.957031 264.019531 62.574219 263.882812 61.074219 C 263.8125 60.25 262.597656 60.257812 262.136719 60.707031 C 258.835938 63.917969 261.074219 70.355469 264.164062 72.894531 Z M 312.207031 106.28125 C 317.386719 108.582031 324.253906 106.546875 326.640625 101.257812 C 327.425781 99.511719 324.738281 99.214844 323.824219 100.167969 C 321.148438 102.941406 316.9375 104.703125 313.289062 102.695312 C 309.625 100.679688 308.792969 96.625 308.90625 92.804688 C 308.941406 91.746094 307.070312 91.894531 306.714844 92.621094 C 304.234375 97.695312 307.214844 104.066406 312.207031 106.28125 Z M 264.96875 214.421875 C 258 213.519531 251.335938 211.058594 246.578125 205.660156 C 242.230469 200.722656 240.582031 194.515625 240.445312 188.136719 C 244.664062 185.429688 248.46875 181.941406 251.867188 178.371094 C 253.558594 176.589844 250.042969 174.886719 248.621094 176.34375 C 242.507812 182.609375 235.078125 189.0625 225.957031 189.777344 C 224.949219 189.859375 223.933594 189.867188 222.917969 189.800781 C 223.570312 189.078125 224.113281 188.226562 224.746094 187.5 C 225.71875 186.390625 226.816406 185.339844 227.957031 184.398438 C 228.949219 183.570312 227.394531 182.65625 226.585938 182.964844 C 224.859375 183.621094 223.386719 184.652344 222.292969 186.15625 C 221.597656 187.109375 220.882812 188.34375 220.882812 189.566406 C 218.425781 189.160156 216.046875 188.308594 213.984375 186.910156 C 213.425781 186.53125 212.875 186.132812 212.382812 185.707031 C 214.566406 183.199219 217.167969 181.605469 220.726562 181.289062 C 222.179688 181.160156 222.140625 179.460938 220.769531 179.214844 C 217.113281 178.554688 212.710938 180.632812 210.960938 184.011719 C 210.460938 183.027344 210.464844 181.90625 211.421875 180.582031 C 212.710938 178.800781 215.125 177.390625 216.898438 176.121094 C 220.398438 173.628906 224.050781 171.351562 227.175781 168.371094 C 230.273438 165.410156 232.785156 161.941406 235.625 158.75 C 239.210938 154.726562 243.6875 150.996094 249.378906 151.136719 C 254.734375 151.273438 259.636719 154.234375 264.21875 156.714844 C 264.664062 156.957031 265.449219 156.539062 264.925781 156.078125 C 260.660156 152.335938 255.632812 148.773438 249.769531 148.394531 C 244.367188 148.046875 239.417969 150.753906 235.527344 154.28125 C 230.769531 158.59375 227.390625 164.175781 222.367188 168.222656 C 217.796875 171.902344 212.4375 174.597656 208.292969 178.8125 C 200.058594 187.203125 217.835938 193.246094 224.054688 193.3125 C 229.101562 193.363281 233.753906 191.902344 238.015625 189.578125 C 236.824219 204.222656 250 218.070312 264.972656 216.820312 C 266.632812 216.683594 266.578125 214.632812 264.96875 214.421875 Z M 195.421875 143.761719 C 195.851562 146.875 197.183594 149.808594 200.375 151.027344 C 204.121094 152.460938 208.492188 150.855469 211.105469 148 C 214.863281 143.894531 215.230469 138.203125 216.941406 133.167969 C 219.804688 124.753906 231.78125 118.410156 228.550781 108.335938 C 225.609375 99.171875 213.9375 97.90625 207.980469 104.78125 C 206.398438 106.605469 209.789062 107.777344 211.089844 106.324219 C 214.863281 102.09375 221.386719 102.453125 224.265625 107.535156 C 226.609375 111.679688 224.945312 115.96875 222.265625 119.453125 C 220.1875 122.160156 217.710938 124.546875 215.832031 127.40625 C 213.789062 130.515625 212.902344 133.980469 212.023438 137.550781 C 211.214844 140.835938 210.058594 145.210938 207.171875 147.320312 C 208.585938 144.113281 207.761719 139.894531 205.652344 137.171875 C 204.824219 136.097656 202.148438 137.296875 203.027344 138.601562 C 205.335938 142.011719 204.480469 145.179688 202.988281 148.523438 C 198.179688 148.050781 198.648438 140.441406 199.003906 136.875 C 199.53125 131.546875 202.980469 122.09375 195.050781 120.542969 C 193.984375 120.335938 193.355469 121.683594 194.425781 122.171875 C 198.753906 124.140625 196.929688 129.433594 196.195312 132.9375 C 195.625 135.648438 195.234375 138.414062 195.253906 141.1875 C 194.726562 141.09375 194.167969 141.140625 193.789062 141.371094 C 186.945312 145.566406 179.089844 147.625 171.203125 145.289062 C 164.550781 143.320312 159.273438 138.75 155.230469 133.242188 C 154.875 132.765625 153.800781 133.101562 154.035156 133.75 C 159.976562 150.253906 182.546875 154.722656 195.421875 143.761719 Z M 204.46875 231 C 182.90625 236.917969 177.277344 259.699219 175.855469 279.578125 C 174.164062 274.867188 172 270.351562 169.25 266.355469 C 164.636719 259.664062 155.277344 250.675781 146.292969 254.296875 C 136.925781 258.070312 140.148438 269.921875 144.667969 276.074219 C 148.261719 280.957031 152.238281 285.359375 154.921875 290.867188 C 157.8125 296.796875 158.507812 302.992188 160.144531 309.28125 C 161.449219 314.289062 163.988281 319.59375 168.953125 321.859375 C 173.191406 323.792969 178.125 322.984375 181.292969 319.570312 C 182.835938 317.90625 179.679688 316.839844 178.421875 318.09375 C 172.570312 323.925781 166.042969 315.554688 164.34375 310.375 C 162.609375 305.09375 162.214844 299.523438 160.234375 294.296875 C 158.402344 289.460938 155.789062 284.996094 152.597656 280.9375 C 149.199219 276.625 144.644531 272.449219 143.472656 266.859375 C 143.234375 265.726562 143.140625 264.5 143.21875 263.28125 C 146.445312 264.828125 148.292969 267.761719 149.808594 270.9375 C 150.164062 271.683594 151.601562 271.445312 151.558594 270.566406 C 151.332031 266.125 147.492188 262.78125 143.492188 261.445312 C 143.765625 260.296875 144.230469 259.214844 144.945312 258.296875 C 146.195312 256.691406 147.878906 256.015625 149.664062 255.914062 C 151.109375 256.898438 152.460938 257.90625 153.566406 259.347656 C 154.871094 261.058594 155.59375 263.070312 156.484375 265 C 156.945312 265.996094 158.734375 265.535156 158.699219 264.460938 C 158.609375 261.386719 156.515625 258.414062 153.8125 256.542969 C 154.492188 256.773438 155.152344 257.046875 155.773438 257.347656 C 160.527344 259.679688 164.441406 263.851562 167.328125 268.21875 C 172.953125 276.730469 175.207031 286.550781 178.53125 296.042969 C 178.738281 296.628906 179.996094 296.453125 179.890625 295.785156 C 179.285156 291.851562 178.417969 287.808594 177.246094 283.835938 C 179.890625 265.023438 183.878906 239.851562 205.1875 234.144531 C 215.46875 231.386719 225.675781 236.769531 232.300781 244.472656 C 239.179688 252.46875 242.195312 262.675781 245.792969 272.375 C 246.242188 273.589844 248.710938 272.945312 248.492188 271.632812 C 245.082031 251.128906 229.226562 224.203125 204.46875 231 Z M 129.425781 194.277344 C 119.789062 186.75 104.785156 190.019531 100.140625 201.664062 C 99.710938 202.738281 101.375 203.09375 101.882812 202.257812 C 107.597656 192.804688 118.675781 189.4375 128.394531 195.265625 C 129.070312 195.671875 130.226562 194.90625 129.425781 194.277344 Z M 114.699219 275.761719 C 113.457031 270.484375 113.839844 265.074219 115.023438 259.824219 C 115.171875 259.152344 114.039062 258.980469 113.765625 259.503906 C 108.503906 269.535156 110.796875 284.296875 120.125 291.214844 C 120.761719 291.6875 122.515625 291.003906 121.898438 290.09375 C 118.855469 285.59375 115.960938 281.125 114.699219 275.761719 Z M 228.335938 80.203125 C 228.941406 90.410156 233.832031 101.4375 242.113281 107.675781 C 242.578125 108.023438 243.65625 107.5 243.140625 106.925781 C 236.261719 99.339844 232.691406 89.800781 230.457031 79.949219 C 230.207031 78.851562 228.273438 79.058594 228.335938 80.203125 Z M 104.390625 262.058594 C 101.242188 266.855469 99.910156 271.84375 97.867188 277.101562 C 96.429688 280.8125 94.328125 284.011719 90.460938 285.417969 C 88.363281 286.183594 86.386719 283.679688 88.789062 282.691406 C 92.449219 281.1875 93.777344 277.441406 94.957031 273.945312 C 96.171875 270.34375 97.324219 266.894531 99.277344 263.605469 C 103.367188 256.714844 109.882812 250.394531 111.285156 242.242188 C 110.398438 242.386719 109.511719 242.527344 108.65625 242.859375 C 106.910156 243.546875 105.488281 244.75 104.128906 246.011719 C 103.585938 246.515625 102.386719 246.183594 102.75 245.328125 C 103.988281 242.445312 108.058594 239.628906 111.539062 239.765625 C 111.589844 237.449219 111.101562 235.09375 109.988281 233.355469 C 107.753906 233.503906 105.59375 233.875 103.621094 235.109375 C 101.484375 236.449219 100.375 238.402344 98.832031 240.289062 C 98.507812 240.6875 97.40625 240.59375 97.425781 239.964844 C 97.542969 235.324219 102.53125 231.761719 107.308594 231.050781 C 105.988281 230.515625 104.335938 230.476562 102.328125 231.175781 C 97.96875 232.6875 94.617188 236.179688 91.492188 239.429688 C 85.402344 245.761719 80.519531 251.921875 78.546875 260.652344 C 78.476562 260.96875 77.917969 260.914062 77.882812 260.605469 C 76.75 250.859375 85.46875 241.847656 91.800781 235.554688 C 97.4375 229.953125 109.523438 223.007812 114.011719 233.761719 C 118.316406 244.074219 109.640625 254.0625 104.390625 262.058594 " fill-opacity="1" fill-rule="nonzero"/></svg>