<svg xmlns="http://www.w3.org/2000/svg" xmlns:xlink="http://www.w3.org/1999/xlink" width="375" zoomAndPan="magnify" viewBox="0 0 375 374.999991" height="374.999991" preserveAspectRatio="xMidYMid meet" version="1.0"><defs><g/><clipPath id="id1"><path d="M 298 191 L 312.546875 191 L 312.546875 240 L 298 240 Z M 298 191 " clip-rule="nonzero"/></clipPath><clipPath id="id2"><path d="M 30.546875 48 L 86 48 L 86 133 L 30.546875 133 Z M 30.546875 48 " clip-rule="nonzero"/></clipPath><clipPath id="id3"><path d="M 57 242 L 87 242 L 87 317.320312 L 57 317.320312 Z M 57 242 " clip-rule="nonzero"/></clipPath></defs><path fill="rgb(73.728943%, 43.528748%, 32.939148%)" d="M 308.03125 216.171875 C 307.6875 210.964844 306.136719 205.972656 304.847656 202.144531 C 304.546875 192.59375 302.265625 183.214844 298.175781 174.609375 C 295.382812 162.519531 290.21875 150.949219 282.214844 141.355469 C 276.320312 134.296875 268.789062 128.445312 260.398438 124.703125 C 252.65625 119.195312 244.738281 113.90625 236.648438 108.914062 C 236.21875 108.65625 235.789062 108.484375 235.359375 108.441406 C 225.03125 102.589844 211.734375 100.828125 200.679688 99.449219 C 190.738281 98.246094 180.84375 96.867188 170.859375 98.460938 C 166.128906 99.191406 161.394531 100.4375 156.917969 102.074219 C 153.261719 103.40625 149.132812 105.34375 147.28125 108.957031 C 146.851562 109.816406 146.722656 110.765625 146.851562 111.625 C 145.472656 112.398438 144.097656 113.21875 142.761719 114.035156 C 142.246094 113.734375 141.6875 113.519531 141.171875 113.304688 C 139.320312 112.570312 137.300781 112.226562 134.933594 112.183594 C 135.234375 112.011719 135.535156 111.839844 135.835938 111.625 C 134.503906 111.410156 133.511719 110.121094 133.554688 108.785156 C 133.597656 107.238281 134.933594 106.074219 136.4375 106.074219 C 137.945312 106.074219 139.191406 107.496094 139.148438 108.957031 C 139.148438 109.042969 139.148438 109.128906 139.105469 109.214844 C 139.535156 108.871094 139.964844 108.484375 140.398438 108.097656 C 140.183594 107.882812 140.011719 107.667969 139.878906 107.410156 C 139.191406 106.117188 139.621094 104.269531 141 103.621094 C 141.386719 103.449219 141.730469 103.277344 142.117188 103.105469 C 141.300781 103.105469 140.441406 103.019531 139.535156 102.847656 C 137.6875 102.503906 136.308594 100.4375 136.308594 98.632812 C 136.308594 96.566406 137.6875 95.105469 139.535156 94.414062 C 141.042969 93.855469 142.632812 93.640625 144.226562 93.554688 C 144.441406 93.167969 144.699219 92.78125 145.042969 92.480469 C 145.558594 92.007812 146.078125 91.535156 146.636719 91.101562 C 146.765625 91.015625 146.851562 90.886719 146.9375 90.800781 C 147.195312 90.414062 147.496094 89.984375 147.796875 89.46875 C 149.648438 86.757812 151.496094 83.789062 153.992188 81.59375 C 153.949219 79.703125 153.734375 77.679688 153.304688 75.65625 C 152.960938 73.980469 152.53125 72.300781 151.972656 70.453125 C 151.84375 69.980469 151.671875 69.503906 151.496094 69.03125 C 151.84375 66.796875 151.84375 64.558594 151.453125 62.234375 C 150.679688 57.933594 148.054688 53.585938 143.925781 51.824219 C 140.097656 50.1875 136.953125 51.609375 134.375 54.105469 C 134.246094 51.222656 133.683594 48.382812 132.566406 45.542969 C 130.84375 41.152344 127.875 37.023438 123.660156 34.742188 C 119.917969 32.722656 116.214844 33.753906 113.890625 36.421875 C 110.40625 36.679688 107.265625 38.746094 105.285156 42.101562 C 103.78125 39.949219 101.84375 38.011719 99.5625 36.507812 C 89.023438 29.410156 77.492188 41.152344 75.167969 52.039062 C 68.714844 50.316406 62.085938 49.800781 55.675781 52.8125 C 54.902344 53.15625 54.171875 53.585938 53.4375 54.015625 C 52.535156 54.40625 51.632812 54.835938 50.769531 55.351562 C 46.125 58.148438 41.691406 63.136719 39.757812 68.601562 C 39.542969 68.859375 39.285156 69.117188 39.066406 69.417969 C 38.121094 70.582031 37.21875 71.914062 36.269531 73.679688 C 35.410156 75.269531 34.851562 76.90625 34.292969 78.929688 C 33.34375 82.15625 33.214844 85.46875 33.171875 88.566406 C 33.128906 92.4375 33.605469 95.75 34.679688 98.675781 C 34.894531 99.320312 35.195312 99.964844 35.496094 100.566406 C 38.679688 100.957031 41.5625 102.460938 43.886719 104.699219 C 45.910156 106.589844 47.800781 109.386719 47.070312 112.3125 C 47.027344 112.527344 46.941406 112.742188 46.855469 112.957031 C 47.15625 113.132812 47.457031 113.304688 47.757812 113.476562 C 47.5 114.464844 47.285156 115.496094 47.199219 116.574219 C 47.15625 116.917969 47.15625 117.261719 47.113281 117.605469 C 47.328125 118.121094 47.414062 118.679688 47.457031 119.285156 C 47.886719 120.230469 48.492188 121.175781 49.007812 122.121094 C 49.910156 123.714844 50.339844 124.273438 52.234375 124.832031 C 54.730469 125.566406 57.3125 125.652344 59.808594 126.382812 C 61.269531 126.8125 62.777344 127.242188 64.238281 127.585938 C 67.894531 128.53125 71.597656 129.351562 75.339844 129.609375 C 77.019531 129.738281 79.253906 129.78125 80.589844 129.609375 C 80.890625 129.566406 81.878906 129.351562 82.484375 129.179688 C 82.613281 129.136719 82.828125 129.050781 82.957031 129.007812 C 83.257812 128.835938 83.515625 128.664062 83.816406 128.488281 C 85.796875 127.15625 88.679688 128.101562 89.796875 130.082031 C 90.914062 131.976562 90.355469 134.167969 88.894531 135.546875 C 89.28125 135.503906 89.667969 135.460938 90.054688 135.375 C 86.613281 138.214844 83.429688 141.3125 80.503906 144.667969 C 79.6875 145.613281 79.425781 146.644531 79.601562 147.59375 C 79.511719 147.722656 79.425781 147.851562 79.296875 148.023438 C 79.082031 148.195312 78.824219 148.367188 78.609375 148.539062 C 78.222656 148.839844 77.621094 148.925781 77.105469 148.882812 C 77.0625 148.925781 77.019531 148.96875 76.976562 149.054688 C 76.242188 149.957031 75.511719 150.949219 74.824219 151.894531 L 74.738281 151.980469 C 74.480469 152.367188 74.179688 152.710938 73.921875 153.097656 C 73.445312 153.746094 72.972656 154.476562 72.542969 155.121094 L 72.5 155.164062 L 72.242188 155.550781 C 72.15625 155.722656 72.027344 155.851562 71.941406 156.023438 L 71.683594 156.410156 L 71.597656 156.496094 C 71.210938 157.101562 70.777344 157.703125 70.433594 158.304688 L 69.316406 160.199219 L 68.199219 162.089844 C 67.808594 162.78125 67.421875 163.511719 67.121094 164.113281 L 67.078125 164.15625 C 66.90625 164.457031 66.777344 164.800781 66.605469 165.101562 C 65.53125 167.125 64.539062 169.320312 63.550781 171.8125 C 62.820312 173.621094 62.171875 175.644531 61.527344 177.964844 C 61.441406 178.222656 61.355469 178.527344 61.3125 178.785156 L 61.269531 179 L 61.269531 179.042969 C 61.054688 179.773438 60.839844 180.503906 60.710938 181.234375 C 60.410156 182.65625 60.152344 184.03125 59.851562 185.453125 C 59.679688 186.226562 59.59375 187.085938 59.464844 187.777344 C 59.421875 188.164062 59.375 188.507812 59.289062 188.851562 C 59.074219 190.183594 58.945312 191.433594 58.859375 192.679688 L 58.859375 192.765625 C 58.816406 193.066406 58.816406 193.367188 58.773438 193.667969 C 58.6875 194.53125 58.644531 195.261719 58.601562 196.035156 C 58.515625 198.875 58.472656 201.457031 58.429688 203.910156 C 58.386719 206.492188 58.386719 208.554688 58.429688 210.40625 C 58.429688 211.4375 58.472656 212.6875 58.558594 213.890625 L 58.601562 214.835938 L 58.6875 215.785156 C 58.730469 216.386719 58.816406 216.988281 58.902344 217.546875 L 58.902344 217.632812 C 58.945312 217.933594 58.988281 218.191406 59.03125 218.492188 C 59.332031 220.773438 59.894531 223.011719 60.625 225.207031 C 60.796875 225.722656 61.011719 226.28125 61.226562 226.796875 L 61.269531 226.925781 C 59.894531 228.433594 59.9375 230.839844 61.398438 232.304688 L 61.398438 232.519531 L 61.484375 233.078125 L 61.570312 233.550781 C 61.742188 234.199219 62.085938 234.800781 62.5625 235.273438 C 63.378906 236.21875 64.109375 236.949219 64.925781 237.511719 C 65.875 238.199219 66.992188 238.585938 68.023438 238.972656 C 69.746094 239.574219 71.554688 239.789062 73.273438 240.003906 L 73.445312 240.046875 C 75.039062 240.261719 76.675781 240.304688 78.050781 240.304688 L 78.136719 240.304688 C 79.339844 240.304688 80.503906 239.660156 81.234375 238.628906 C 81.449219 238.457031 81.664062 238.242188 81.878906 238.027344 C 82.699219 238.070312 83.429688 238.070312 84.074219 238.070312 L 85.277344 238.070312 C 87 237.984375 88.851562 237.640625 90.742188 236.992188 C 92.464844 236.433594 94.1875 235.574219 95.648438 234.886719 C 96.765625 234.328125 97.671875 233.851562 98.445312 233.335938 L 100.296875 232.21875 L 102.058594 231.101562 C 102.230469 230.96875 102.402344 230.839844 102.578125 230.753906 L 102.878906 230.539062 L 102.964844 230.453125 L 104.984375 228.992188 C 106.707031 227.742188 108.386719 226.410156 109.976562 225.121094 L 110.578125 224.644531 L 111.179688 224.171875 C 111.785156 223.699219 112.386719 223.140625 112.945312 222.625 C 113.246094 222.367188 113.503906 222.109375 113.804688 221.851562 C 115.355469 220.472656 116.601562 219.3125 117.765625 218.148438 C 120.304688 215.613281 122.539062 212.773438 124.605469 210.0625 C 126.757812 207.265625 128.523438 204.382812 129.941406 201.542969 C 131.363281 198.703125 132.523438 195.691406 133.597656 193.066406 L 133.597656 193.023438 C 134.375 191.046875 135.148438 188.980469 135.878906 186.699219 C 136.351562 187.820312 136.910156 189.066406 137.558594 190.441406 C 137.945312 191.21875 138.332031 191.992188 138.71875 192.679688 C 138.933594 193.066406 139.148438 193.453125 139.320312 193.84375 C 139.449219 194.058594 139.535156 194.273438 139.621094 194.445312 L 139.664062 194.53125 C 139.964844 195.089844 140.269531 195.691406 140.613281 196.25 C 140.914062 196.765625 141.214844 197.242188 141.515625 197.757812 L 141.601562 197.929688 C 142.417969 199.304688 143.367188 200.855469 144.3125 202.316406 L 144.355469 202.359375 L 144.441406 202.488281 L 144.484375 202.53125 C 145.820312 204.554688 147.195312 206.664062 148.570312 208.726562 L 148.832031 209.113281 L 148.917969 209.242188 C 149.863281 210.621094 150.9375 212.210938 152.058594 213.675781 C 152.960938 214.878906 153.992188 216.085938 155.113281 217.289062 C 156.53125 218.796875 158.167969 220.128906 159.414062 221.074219 C 160.535156 221.9375 161.78125 222.753906 163.160156 223.484375 C 165.179688 224.558594 166.902344 225.25 168.492188 225.679688 C 169.398438 225.9375 170.386719 226.066406 171.332031 226.066406 C 172.367188 226.066406 173.355469 225.9375 174.300781 225.636719 C 176.195312 225.078125 177.832031 224.085938 179.207031 222.667969 C 180.371094 221.460938 181.316406 220.085938 182.046875 218.535156 C 182.433594 217.71875 182.863281 216.773438 183.210938 215.742188 C 183.597656 214.621094 183.8125 213.460938 183.984375 212.429688 C 184.027344 212.167969 184.070312 211.910156 184.113281 211.652344 C 184.628906 212.296875 185.273438 212.945312 185.917969 213.589844 C 187.125 214.75 188.542969 215.914062 190.09375 217.03125 C 191.425781 218.019531 192.976562 218.882812 194.914062 219.785156 C 195.945312 220.257812 196.976562 220.6875 198.183594 221.117188 C 198.355469 221.589844 198.613281 222.066406 198.957031 222.410156 L 199 222.453125 C 199.6875 223.183594 200.375 223.914062 201.109375 224.558594 C 201.796875 225.164062 202.398438 225.636719 202.957031 226.023438 C 203.648438 226.496094 204.421875 226.882812 205.109375 227.183594 C 205.96875 227.570312 206.660156 227.785156 207.476562 227.871094 C 207.691406 227.914062 207.863281 227.914062 208.078125 227.914062 C 208.636719 227.914062 209.242188 227.828125 209.84375 227.65625 C 210.273438 227.527344 210.703125 227.355469 211.089844 227.183594 C 211.476562 227.054688 211.777344 226.796875 212.082031 226.539062 C 212.210938 226.453125 212.339844 226.367188 212.46875 226.28125 C 212.984375 225.894531 213.414062 225.378906 213.800781 224.863281 L 214.015625 224.558594 C 214.878906 223.441406 215.4375 222.195312 215.996094 220.859375 C 216.46875 219.699219 216.898438 218.492188 217.242188 217.160156 C 217.761719 215.222656 218.105469 213.074219 218.320312 210.621094 C 218.40625 209.417969 218.535156 208.167969 218.621094 206.964844 C 219.179688 207.738281 219.738281 208.46875 220.253906 209.113281 C 221.246094 210.363281 222.363281 211.695312 223.785156 213.246094 C 224.988281 214.578125 226.191406 215.699219 227.398438 216.730469 C 228.644531 217.761719 230.109375 218.710938 231.742188 219.570312 C 233.550781 220.515625 235.53125 221.074219 237.207031 221.546875 C 237.984375 221.765625 238.757812 221.9375 239.53125 222.066406 C 239.746094 222.753906 240.132812 223.355469 240.691406 223.828125 C 241.382812 224.429688 242.285156 224.730469 243.230469 224.730469 C 244.394531 224.730469 245.46875 224.257812 246.199219 223.398438 C 246.933594 222.539062 247.535156 221.722656 248.050781 220.945312 C 249.601562 220.171875 250.933594 219.097656 251.921875 217.71875 C 252.484375 216.945312 253 216.128906 253.386719 215.308594 C 253.515625 215.050781 253.644531 214.792969 253.730469 214.492188 C 254.589844 215.4375 255.367188 216.300781 256.097656 217.074219 L 256.226562 217.203125 C 256.226562 218.0625 256.484375 218.839844 256.914062 219.398438 L 257.128906 219.65625 C 258.980469 221.980469 260.917969 224.34375 263.195312 226.324219 C 264.101562 227.097656 265.132812 227.871094 265.992188 228.519531 L 266.035156 228.5625 L 266.769531 229.121094 C 267.070312 229.335938 267.371094 229.550781 267.671875 229.722656 L 267.757812 229.765625 L 267.929688 229.894531 C 268.058594 229.980469 268.1875 230.066406 268.316406 230.152344 C 268.917969 230.539062 269.523438 230.925781 270.125 231.316406 C 271.15625 231.960938 272.1875 232.605469 273.179688 233.25 L 273.394531 233.378906 C 275.070312 234.457031 276.792969 235.53125 278.558594 236.519531 C 279.976562 237.292969 281.613281 238.199219 283.332031 238.886719 C 284.023438 239.574219 284.667969 240.003906 285.355469 240.261719 C 286.300781 240.609375 287.335938 240.78125 288.410156 240.78125 C 289.054688 240.78125 289.746094 240.695312 290.433594 240.566406 C 290.734375 240.523438 290.992188 240.4375 291.292969 240.390625 C 292.066406 240.261719 292.84375 240.089844 293.574219 239.917969 L 294.046875 239.789062 C 295.078125 239.53125 296.199219 239.230469 297.574219 238.886719 C 298.566406 238.628906 299.554688 238.285156 300.714844 237.855469 C 300.929688 237.769531 301.148438 237.683594 301.363281 237.597656 C 301.835938 237.425781 302.308594 237.164062 302.609375 236.949219 C 303.082031 236.648438 303.382812 236.347656 303.769531 235.960938 C 305.105469 234.628906 305.707031 232.691406 306.179688 230.96875 L 306.222656 230.882812 C 306.566406 229.722656 306.78125 228.5625 307.042969 227.398438 L 307.128906 227.054688 C 307.171875 226.796875 307.257812 226.496094 307.300781 226.238281 C 307.988281 222.582031 308.246094 219.269531 308.03125 216.171875 Z M 74.78125 60.125 C 74.695312 60.039062 74.609375 59.953125 74.480469 59.824219 C 74.394531 59.738281 74.265625 59.609375 74.136719 59.523438 C 74.394531 59.566406 74.609375 59.609375 74.867188 59.652344 C 74.824219 59.824219 74.824219 59.953125 74.78125 60.125 Z M 74.78125 60.125 " fill-opacity="1" fill-rule="nonzero"/><path fill="rgb(100%, 100%, 100%)" d="M 132.652344 101.472656 C 130.929688 101.515625 129.210938 101.730469 127.53125 101.945312 C 124.21875 102.375 120.992188 103.191406 117.851562 104.269531 C 114.453125 105.429688 111.136719 106.847656 107.996094 108.527344 C 105.71875 109.6875 103.566406 111.066406 101.457031 112.527344 C 99.304688 114.035156 97.242188 115.710938 95.390625 117.605469 C 94.445312 118.550781 93.625 119.585938 92.808594 120.660156 C 92.035156 121.691406 91.347656 122.769531 90.742188 123.929688 C 90.355469 124.703125 90.054688 125.476562 89.753906 126.296875 C 89.453125 127.070312 89.367188 127.929688 89.324219 128.792969 C 89.324219 129.007812 89.324219 129.265625 89.367188 129.480469 C 89.410156 130.082031 89.496094 130.597656 89.710938 131.15625 C 89.96875 131.847656 90.269531 132.449219 90.699219 133.050781 C 91.261719 133.910156 91.992188 134.554688 93.023438 134.8125 C 94.015625 135.074219 95.132812 134.945312 95.992188 134.425781 C 96.855469 133.910156 97.5 133.09375 97.757812 132.105469 C 98.015625 131.15625 97.929688 129.953125 97.371094 129.136719 C 97.285156 129.007812 97.199219 128.878906 97.15625 128.75 C 97.242188 128.488281 97.285156 128.273438 97.371094 128.015625 C 97.371094 128.015625 97.371094 127.972656 97.414062 127.972656 C 97.457031 128.015625 97.542969 128.058594 97.585938 128.101562 C 97.886719 128.230469 98.1875 128.359375 98.488281 128.488281 C 99.175781 128.664062 99.867188 128.664062 100.554688 128.488281 C 101.328125 128.359375 102.058594 128.273438 102.835938 128.101562 C 103.609375 127.929688 104.382812 127.714844 105.113281 127.5 C 106.019531 127.242188 106.878906 126.941406 107.738281 126.640625 C 109.203125 126.082031 110.621094 125.566406 112.085938 125.003906 C 114.582031 124.058594 117.035156 122.941406 119.527344 121.90625 C 121.679688 121.003906 123.832031 119.972656 125.941406 119.023438 C 126.972656 118.550781 127.960938 118.035156 128.996094 117.519531 C 130.585938 116.875 132.179688 116.230469 133.769531 115.582031 C 135.75 114.765625 137.6875 113.992188 139.578125 113.042969 C 140.269531 112.699219 140.914062 112.355469 141.558594 111.96875 C 142.332031 111.539062 143.066406 110.9375 143.753906 110.378906 C 144.183594 110.035156 144.441406 109.558594 144.785156 109.085938 C 145.214844 108.484375 145.386719 107.496094 145.429688 106.804688 C 145.558594 105.128906 144.613281 103.578125 143.238281 102.675781 C 142.503906 102.203125 141.644531 101.945312 140.785156 101.773438 C 140.183594 101.644531 139.621094 101.601562 139.019531 101.515625 C 138.503906 102.332031 137.558594 102.847656 136.523438 102.847656 C 135.535156 102.847656 134.675781 102.246094 134.199219 101.429688 C 133.683594 101.472656 133.167969 101.472656 132.652344 101.472656 Z M 97.070312 128.964844 C 97.113281 129.007812 97.113281 129.050781 97.15625 129.136719 C 97.113281 129.09375 97.113281 129.050781 97.070312 128.964844 Z M 97.070312 128.964844 " fill-opacity="1" fill-rule="nonzero"/><path fill="rgb(100%, 100%, 100%)" d="M 137.945312 106.980469 C 136.4375 108.054688 134.761719 109 133.082031 109.859375 C 131.273438 110.808594 129.425781 111.710938 127.617188 112.613281 C 126.027344 113.433594 124.433594 114.207031 122.84375 115.066406 C 119.917969 116.617188 117.035156 118.25 113.976562 119.585938 C 112.214844 120.316406 110.40625 120.832031 108.515625 121.261719 C 106.449219 121.734375 105.285156 124.058594 105.804688 126.039062 C 106.0625 126.984375 106.707031 127.84375 107.566406 128.359375 C 108.515625 128.921875 109.503906 128.964844 110.535156 128.75 C 111.828125 128.445312 113.160156 128.144531 114.410156 127.671875 C 116.128906 127.070312 117.808594 126.339844 119.484375 125.566406 C 121.164062 124.789062 122.800781 123.886719 124.433594 123.027344 C 126.542969 121.90625 128.695312 120.789062 130.84375 119.671875 C 132.695312 118.722656 134.589844 117.820312 136.4375 116.875 C 138.289062 115.925781 140.140625 114.9375 141.816406 113.734375 C 142.074219 113.519531 142.332031 113.347656 142.589844 113.132812 C 143.066406 112.65625 143.410156 112.097656 143.582031 111.410156 C 143.839844 110.421875 143.710938 109.300781 143.195312 108.441406 C 142.675781 107.582031 141.859375 106.9375 140.871094 106.675781 C 140.527344 106.589844 140.183594 106.546875 139.792969 106.546875 C 139.148438 106.417969 138.460938 106.589844 137.945312 106.980469 Z M 137.945312 106.980469 " fill-opacity="1" fill-rule="nonzero"/><path fill="rgb(81.959534%, 63.529968%, 51.759338%)" d="M 139.363281 148.667969 C 138.203125 149.3125 137.34375 150.257812 136.523438 151.335938 C 135.964844 152.066406 135.578125 152.925781 135.277344 153.789062 C 134.890625 154.90625 134.71875 156.023438 134.632812 157.230469 C 134.375 160.714844 134.15625 164.199219 134.113281 167.683594 C 134.070312 171.382812 134.460938 174.996094 134.933594 178.65625 C 135.40625 182.097656 136.050781 185.539062 136.867188 188.9375 C 138.417969 195.605469 140.699219 202.144531 143.796875 208.253906 C 145.257812 211.136719 146.9375 213.890625 148.917969 216.472656 C 149.949219 217.804688 150.980469 219.054688 152.144531 220.257812 C 153.390625 221.546875 154.726562 222.667969 156.144531 223.742188 C 157.265625 224.601562 158.425781 225.378906 159.628906 226.066406 C 161.09375 226.882812 162.683594 227.527344 164.234375 228.132812 C 164.964844 228.433594 165.738281 228.691406 166.515625 228.90625 C 167.417969 229.164062 168.320312 229.292969 169.269531 229.378906 C 170.773438 229.59375 172.367188 229.378906 173.828125 229.035156 C 175.421875 228.648438 176.796875 227.785156 178.003906 226.710938 C 178.605469 226.152344 179.121094 225.464844 179.59375 224.816406 C 180.023438 224.257812 180.371094 223.65625 180.671875 223.054688 C 181.402344 221.632812 181.832031 220.085938 182.21875 218.578125 C 182.648438 216.988281 182.777344 215.308594 182.992188 213.675781 C 182.949219 213.890625 182.949219 214.105469 182.90625 214.320312 C 183.078125 212.988281 183.253906 211.609375 183.382812 210.277344 C 183.46875 209.371094 183.597656 208.46875 183.511719 207.566406 C 183.296875 205.371094 182.605469 203.089844 181.015625 201.457031 C 179.292969 202.960938 178.046875 205.070312 177.53125 207.308594 C 177.269531 208.46875 177.226562 209.71875 177.097656 210.921875 C 176.96875 212.382812 176.839844 213.847656 176.625 215.308594 C 176.367188 216.945312 175.980469 218.578125 175.421875 220.128906 C 175.121094 220.730469 174.777344 221.289062 174.386719 221.851562 C 174.085938 222.195312 173.742188 222.539062 173.398438 222.882812 C 173.226562 223.011719 173.011719 223.140625 172.796875 223.226562 C 172.367188 223.355469 171.9375 223.484375 171.503906 223.570312 C 170.859375 223.613281 170.171875 223.65625 169.527344 223.570312 C 168.234375 223.3125 166.988281 222.882812 165.738281 222.410156 C 163.890625 221.589844 162.125 220.558594 160.492188 219.355469 C 158.511719 217.761719 156.746094 215.957031 155.199219 213.976562 C 152.53125 210.40625 150.464844 206.492188 148.703125 202.402344 C 147.152344 198.703125 145.949219 194.875 144.957031 191.003906 C 143.882812 186.828125 143.023438 182.613281 142.417969 178.355469 C 142.117188 175.945312 141.902344 173.535156 141.773438 171.082031 C 141.644531 168.457031 141.730469 165.789062 141.859375 163.125 C 141.902344 161.875 141.988281 160.628906 142.117188 159.335938 C 142.160156 158.648438 142.203125 157.960938 142.289062 157.230469 C 142.375 156.324219 142.289062 155.464844 142.160156 154.5625 C 141.988281 153.3125 141.558594 152.195312 141.042969 151.035156 C 140.699219 150.128906 140.097656 149.3125 139.363281 148.667969 C 139.40625 148.667969 139.40625 148.667969 139.363281 148.667969 C 139.40625 148.667969 139.40625 148.667969 139.363281 148.667969 Z M 183.121094 213.589844 C 183.121094 213.546875 183.121094 213.460938 183.167969 213.417969 C 183.121094 213.503906 183.121094 213.546875 183.121094 213.589844 Z M 183.121094 213.589844 " fill-opacity="1" fill-rule="nonzero"/><path fill="rgb(81.959534%, 63.529968%, 51.759338%)" d="M 173.699219 184.332031 C 173.097656 185.109375 172.710938 185.925781 172.324219 186.828125 C 171.894531 187.90625 171.722656 189.066406 171.679688 190.226562 C 171.632812 191.046875 171.722656 191.820312 171.808594 192.636719 C 171.9375 193.667969 172.066406 194.660156 172.28125 195.648438 C 172.625 197.371094 173.183594 199.046875 173.785156 200.726562 C 174.992188 203.996094 176.625 207.050781 178.476562 209.976562 C 180.285156 212.816406 182.347656 215.523438 184.628906 217.976562 C 186.910156 220.429688 189.578125 222.582031 192.417969 224.386719 C 193.707031 225.207031 195.085938 225.894531 196.460938 226.496094 C 198.140625 227.226562 199.902344 227.914062 201.667969 228.433594 C 203.214844 228.863281 204.808594 229.207031 206.359375 229.464844 C 207.304688 229.59375 208.25 229.722656 209.199219 229.679688 C 210.1875 229.636719 211.175781 229.421875 212.125 229.207031 C 213.757812 228.777344 215.222656 227.914062 216.46875 226.796875 C 217.070312 226.238281 217.542969 225.550781 218.019531 224.90625 C 218.492188 224.257812 218.878906 223.570312 219.222656 222.882812 C 220.773438 219.871094 221.546875 216.558594 221.632812 213.203125 C 221.675781 211.609375 221.632812 209.976562 221.546875 208.382812 C 221.503906 207.09375 221.417969 205.800781 221.246094 204.511719 C 221.074219 203.265625 220.601562 201.972656 219.953125 200.898438 C 219.351562 199.820312 218.578125 198.875 217.585938 198.1875 C 216.425781 199.476562 215.652344 201.113281 215.222656 202.789062 C 215.050781 203.566406 214.921875 204.339844 214.878906 205.113281 C 214.835938 205.800781 214.921875 206.535156 214.964844 207.222656 C 215.050781 208.554688 215.136719 209.847656 215.136719 211.179688 C 215.179688 212.429688 215.179688 213.71875 215.050781 214.964844 C 214.835938 216.300781 214.488281 217.632812 214.015625 218.882812 C 213.585938 219.871094 213.027344 220.816406 212.425781 221.71875 C 212.210938 221.980469 211.996094 222.238281 211.734375 222.453125 C 211.476562 222.625 211.261719 222.753906 210.960938 222.882812 C 210.445312 223.054688 209.886719 223.226562 209.371094 223.3125 C 208.851562 223.355469 208.378906 223.355469 207.863281 223.269531 C 205.496094 222.882812 203.214844 222.238281 201.023438 221.332031 C 198.742188 220.34375 196.589844 219.097656 194.566406 217.632812 C 192.117188 215.699219 189.964844 213.460938 188.027344 211.007812 C 185.53125 207.652344 183.339844 204.039062 181.660156 200.210938 C 180.671875 197.757812 179.894531 195.21875 179.464844 192.59375 C 179.378906 191.820312 179.335938 191.089844 179.335938 190.3125 C 179.335938 189.753906 179.378906 189.238281 179.335938 188.679688 C 179.292969 187.949219 179.164062 187.257812 179.035156 186.527344 C 178.863281 185.496094 178.433594 184.460938 177.960938 183.515625 C 177.660156 182.871094 177.226562 182.269531 176.753906 181.753906 C 175.550781 182.269531 174.5625 183.214844 173.699219 184.332031 Z M 173.699219 184.332031 " fill-opacity="1" fill-rule="nonzero"/><path fill="rgb(81.959534%, 63.529968%, 51.759338%)" d="M 213.328125 175.300781 C 212.210938 176.203125 211.476562 177.40625 210.917969 178.742188 C 210.617188 179.472656 210.445312 180.160156 210.316406 180.933594 C 210.230469 181.539062 210.144531 182.097656 210.144531 182.699219 C 210.101562 183.214844 210.230469 183.773438 210.273438 184.289062 C 210.703125 187.820312 211.261719 191.304688 212.339844 194.703125 C 213.414062 198.058594 214.835938 201.285156 216.425781 204.382812 C 218.019531 207.480469 220.039062 210.320312 222.191406 213.03125 C 224.171875 215.570312 226.453125 217.804688 228.945312 219.828125 C 230.28125 220.902344 231.65625 221.894531 233.078125 222.796875 C 234.667969 223.785156 236.304688 224.558594 238.027344 225.292969 C 239.488281 225.894531 240.953125 226.496094 242.457031 227.011719 C 243.1875 227.269531 243.964844 227.398438 244.695312 227.570312 C 245.898438 227.828125 247.0625 227.957031 248.265625 227.742188 C 249.082031 227.570312 249.859375 227.226562 250.546875 226.753906 C 251.234375 226.28125 251.878906 225.722656 252.398438 225.078125 C 252.742188 224.644531 253 224.300781 253.257812 223.828125 C 253.515625 223.398438 253.6875 222.839844 253.902344 222.410156 C 254.203125 221.589844 254.503906 220.773438 254.71875 219.957031 C 255.28125 217.804688 255.324219 215.613281 255.28125 213.417969 C 255.238281 211.738281 254.71875 210.105469 253.945312 208.597656 C 253.300781 207.394531 252.398438 206.230469 251.234375 205.542969 C 250.546875 206.320312 249.988281 207.179688 249.601562 208.125 C 249.386719 208.683594 249.167969 209.199219 248.996094 209.761719 C 248.824219 210.40625 248.738281 211.050781 248.652344 211.738281 C 248.523438 212.730469 248.609375 213.675781 248.609375 214.664062 C 248.609375 215.480469 248.609375 216.34375 248.523438 217.160156 C 248.351562 218.277344 248.050781 219.398438 247.621094 220.472656 C 247.535156 220.644531 247.449219 220.816406 247.320312 220.988281 C 247.191406 221.117188 247.105469 221.203125 246.976562 221.332031 C 246.933594 221.332031 246.890625 221.375 246.890625 221.375 C 246.804688 221.375 246.71875 221.375 246.632812 221.375 C 245.941406 221.246094 245.210938 221.074219 244.523438 220.859375 C 243.792969 220.644531 243.058594 220.34375 242.328125 220.042969 C 240.996094 219.484375 239.660156 218.882812 238.371094 218.148438 C 237.164062 217.503906 236.046875 216.6875 234.96875 215.871094 C 232.347656 213.761719 230.023438 211.351562 227.957031 208.726562 C 226.667969 207.007812 225.417969 205.199219 224.34375 203.308594 C 223.179688 201.328125 222.191406 199.261719 221.289062 197.15625 C 220.511719 195.304688 219.867188 193.410156 219.308594 191.433594 C 218.707031 189.410156 218.320312 187.300781 218.019531 185.195312 C 217.890625 184.246094 217.804688 183.300781 217.671875 182.355469 C 217.5 181.148438 217.027344 180.03125 216.46875 178.914062 C 216.039062 178.09375 215.480469 177.320312 214.878906 176.589844 C 214.53125 176.160156 213.972656 175.644531 213.328125 175.300781 C 213.328125 175.257812 213.328125 175.257812 213.328125 175.300781 C 213.328125 175.257812 213.328125 175.300781 213.328125 175.300781 Z M 242.027344 219.871094 C 242.15625 219.914062 242.285156 220 242.414062 220.042969 C 242.285156 220 242.15625 219.914062 242.027344 219.871094 Z M 246.675781 221.503906 L 246.632812 221.503906 C 246.632812 221.503906 246.632812 221.503906 246.675781 221.503906 Z M 246.675781 221.503906 " fill-opacity="1" fill-rule="nonzero"/><path fill="rgb(81.959534%, 63.529968%, 51.759338%)" d="M 246.113281 202.402344 C 245.941406 203.089844 245.8125 203.78125 245.769531 204.46875 C 245.683594 205.328125 245.8125 206.230469 245.941406 207.09375 C 246.070312 208.039062 246.503906 208.941406 246.890625 209.804688 C 247.191406 210.492188 247.707031 211.136719 248.179688 211.78125 C 250.117188 214.535156 252.226562 217.160156 254.460938 219.65625 C 258.851562 224.601562 263.886719 228.992188 269.523438 232.476562 C 272.316406 234.195312 275.289062 235.617188 278.34375 236.863281 C 278.902344 237.078125 279.460938 237.292969 280.019531 237.511719 C 280.449219 237.683594 280.835938 237.855469 281.3125 237.941406 C 282.859375 238.242188 284.324219 238.242188 285.871094 237.984375 C 286.90625 237.8125 287.9375 237.425781 288.796875 236.777344 C 288.066406 235.402344 286.992188 234.328125 285.785156 233.378906 C 285.914062 233.464844 286.042969 233.550781 286.171875 233.679688 C 285.699219 233.292969 285.183594 232.90625 284.667969 232.605469 C 284.324219 232.390625 283.9375 232.21875 283.546875 232.046875 C 282.472656 231.53125 281.355469 231.1875 280.277344 230.753906 C 276.535156 229.078125 273.050781 227.011719 269.78125 224.515625 C 265.304688 220.988281 261.433594 216.816406 257.902344 212.339844 C 256.484375 210.492188 255.152344 208.597656 253.902344 206.621094 C 253.085938 205.371094 252.09375 204.296875 250.933594 203.394531 C 249.988281 202.660156 248.996094 202.015625 247.878906 201.585938 C 247.835938 201.542969 247.75 201.542969 247.707031 201.542969 C 247.621094 201.5 247.492188 201.5 247.40625 201.5 C 246.761719 201.542969 246.285156 201.886719 246.113281 202.402344 Z M 246.113281 202.402344 " fill-opacity="1" fill-rule="nonzero"/><path fill="rgb(81.959534%, 63.529968%, 51.759338%)" d="M 135.449219 190.054688 C 134.546875 190.269531 133.726562 190.65625 132.953125 191.132812 C 131.921875 191.777344 130.972656 192.636719 130.199219 193.582031 C 129.726562 194.144531 129.339844 194.703125 128.953125 195.347656 C 128.609375 195.949219 128.390625 196.59375 128.089844 197.199219 C 127.574219 198.316406 127.058594 199.433594 126.542969 200.554688 C 124.519531 204.769531 122.152344 208.855469 119.3125 212.601562 C 116.429688 216.214844 113.117188 219.441406 109.503906 222.324219 C 105.460938 225.378906 101.070312 228.003906 96.378906 230.023438 C 93.367188 231.230469 90.3125 232.261719 87.128906 232.949219 C 85.582031 233.292969 84.03125 233.636719 82.484375 233.894531 C 81.835938 233.980469 81.234375 234.109375 80.589844 234.242188 C 79.6875 234.457031 78.824219 234.84375 78.007812 235.273438 C 76.761719 235.917969 75.597656 236.820312 74.738281 237.941406 C 75.554688 238.757812 76.542969 239.273438 77.621094 239.703125 C 78.050781 239.875 78.523438 240.003906 78.996094 240.089844 C 79.902344 240.304688 80.847656 240.390625 81.792969 240.390625 C 82.527344 240.390625 83.300781 240.21875 84.03125 240.089844 C 84.589844 240.003906 85.105469 239.917969 85.667969 239.789062 C 86.914062 239.53125 88.160156 239.273438 89.367188 239.015625 C 95.949219 237.597656 102.359375 235.144531 108.210938 231.789062 C 111.226562 230.066406 114.019531 228.003906 116.730469 225.851562 C 119.269531 223.828125 121.59375 221.546875 123.746094 219.097656 C 127.316406 215.050781 130.242188 210.363281 132.695312 205.542969 C 133.296875 204.339844 133.898438 203.089844 134.460938 201.84375 C 135.105469 200.425781 135.835938 199.003906 136.265625 197.542969 C 136.480469 196.722656 136.566406 195.863281 136.609375 195.046875 C 136.652344 194.316406 136.566406 193.539062 136.4375 192.808594 C 136.265625 191.863281 135.964844 190.917969 135.449219 190.054688 Z M 135.449219 190.054688 " fill-opacity="1" fill-rule="nonzero"/><path fill="rgb(81.959534%, 63.529968%, 51.759338%)" d="M 173.957031 154.261719 C 172.453125 155.507812 171.503906 157.316406 171.03125 159.164062 C 170.6875 160.414062 170.601562 161.703125 170.6875 162.953125 C 170.730469 163.554688 170.773438 164.113281 170.816406 164.714844 C 170.902344 165.703125 171.074219 166.695312 171.203125 167.683594 C 171.375 168.714844 171.546875 169.75 171.765625 170.78125 C 171.894531 171.339844 172.195312 171.941406 172.410156 172.460938 C 172.625 172.933594 172.882812 173.363281 173.183594 173.835938 C 173.527344 174.308594 173.914062 174.78125 174.300781 175.214844 C 175.207031 176.117188 176.28125 176.890625 177.53125 177.277344 C 178.089844 176.417969 178.476562 175.472656 178.777344 174.523438 C 179.078125 173.535156 179.207031 172.460938 179.25 171.425781 C 179.335938 170.4375 179.164062 169.40625 178.992188 168.414062 C 178.863281 167.640625 178.734375 166.910156 178.605469 166.136719 C 178.519531 165.359375 178.433594 164.628906 178.390625 163.855469 C 178.304688 162.476562 178.21875 161.101562 177.789062 159.769531 C 177.140625 157.660156 175.851562 155.464844 173.957031 154.261719 Z M 173.957031 154.261719 " fill-opacity="1" fill-rule="nonzero"/><path fill="rgb(81.959534%, 63.529968%, 51.759338%)" d="M 251.105469 117.261719 C 250.332031 117.433594 249.601562 117.777344 248.867188 118.121094 C 248.265625 118.421875 247.707031 118.808594 247.191406 119.28125 C 247.0625 119.414062 246.976562 119.5 246.847656 119.628906 C 247.707031 121.21875 249.125 122.335938 250.632812 123.285156 C 252.441406 124.402344 254.503906 124.960938 256.441406 125.695312 C 258.378906 126.597656 260.226562 127.628906 262.078125 128.75 C 263.886719 129.867188 265.605469 131.070312 267.328125 132.320312 C 269.390625 133.953125 271.371094 135.71875 273.265625 137.566406 C 274.210938 138.515625 275.113281 139.503906 276.019531 140.492188 C 276.621094 141.140625 277.179688 141.785156 277.738281 142.472656 C 278.988281 144.019531 280.191406 145.570312 281.441406 147.117188 C 282.257812 148.324219 283.074219 149.484375 283.894531 150.691406 C 284.195312 151.164062 284.496094 151.59375 284.839844 152.066406 C 285.140625 152.539062 285.398438 153.054688 285.699219 153.53125 C 286.171875 154.347656 286.644531 155.164062 287.121094 155.980469 C 287.335938 156.324219 287.550781 156.671875 287.722656 157.058594 C 288.367188 158.390625 289.011719 159.726562 289.660156 161.101562 C 290.21875 162.433594 290.777344 163.769531 291.292969 165.144531 C 291.59375 166.050781 291.980469 166.910156 292.238281 167.8125 C 292.585938 168.972656 292.929688 170.09375 293.402344 171.167969 C 293.316406 170.953125 293.230469 170.738281 293.101562 170.480469 C 293.1875 170.738281 293.316406 170.996094 293.402344 171.210938 C 293.402344 171.210938 293.402344 171.210938 293.402344 171.253906 C 293.402344 171.253906 293.402344 171.253906 293.402344 171.210938 C 293.660156 171.769531 293.960938 172.332031 294.304688 172.890625 C 294.734375 173.535156 295.207031 174.136719 295.726562 174.652344 C 296.5 175.472656 297.402344 176.160156 298.394531 176.589844 C 298.996094 175.773438 299.339844 174.738281 299.511719 173.75 C 299.640625 173.0625 299.726562 172.375 299.726562 171.640625 C 299.726562 170.78125 299.597656 169.921875 299.46875 169.0625 C 299.382812 168.585938 299.253906 168.15625 299.082031 167.726562 C 298.867188 167.125 298.695312 166.523438 298.480469 165.964844 C 298.046875 164.84375 297.660156 163.726562 297.230469 162.5625 C 296.757812 161.316406 296.199219 160.113281 295.726562 158.90625 C 295.207031 157.660156 294.648438 156.453125 294.046875 155.25 C 293.617188 154.347656 293.230469 153.488281 292.757812 152.625 C 292.023438 151.335938 291.335938 150.042969 290.605469 148.753906 C 290.089844 147.851562 289.441406 146.945312 288.882812 146.085938 C 288.453125 145.441406 288.066406 144.796875 287.636719 144.195312 C 287.464844 143.933594 287.335938 143.675781 287.164062 143.460938 C 285.3125 141.007812 283.503906 138.515625 281.527344 136.148438 C 279.375 133.566406 277.050781 131.113281 274.597656 128.835938 C 272.015625 126.46875 269.21875 124.359375 266.292969 122.425781 C 264.960938 121.519531 263.582031 120.703125 262.164062 119.929688 C 260.484375 118.980469 258.679688 118.25 256.871094 117.605469 C 256.484375 117.476562 256.097656 117.347656 255.710938 117.21875 C 255.152344 117.046875 254.503906 117.046875 253.902344 116.960938 C 253.6875 116.917969 253.515625 116.917969 253.300781 116.917969 C 252.527344 117.003906 251.792969 117.132812 251.105469 117.261719 Z M 251.105469 117.261719 " fill-opacity="1" fill-rule="nonzero"/><g clip-path="url(#id1)"><path fill="rgb(81.959534%, 63.529968%, 51.759338%)" d="M 298.867188 191.304688 C 298.265625 193.238281 298.523438 195.433594 299.167969 197.328125 C 299.597656 198.617188 300.242188 199.734375 300.886719 200.898438 C 301.363281 201.714844 301.75 202.574219 302.136719 203.4375 C 303.597656 207.050781 304.332031 210.878906 304.890625 214.75 C 305.234375 217.460938 305.363281 220.214844 305.0625 222.925781 C 304.71875 224.90625 304.160156 226.882812 303.382812 228.734375 C 303.082031 229.464844 302.738281 230.152344 302.394531 230.882812 C 301.921875 231.789062 301.578125 232.734375 301.277344 233.722656 C 300.886719 235.015625 300.671875 236.390625 300.585938 237.726562 C 300.542969 238.285156 300.585938 238.84375 300.628906 239.402344 C 301.707031 239.488281 302.738281 239.230469 303.726562 238.800781 C 305.578125 237.984375 307.128906 236.476562 308.074219 234.714844 C 309.0625 232.90625 309.925781 231.054688 310.613281 229.121094 C 311.128906 227.742188 311.558594 226.367188 311.859375 224.949219 C 312.203125 223.355469 312.332031 221.71875 312.417969 220.128906 C 312.546875 217.160156 312.246094 214.191406 311.859375 211.222656 C 311.472656 208.425781 310.957031 205.585938 310.054688 202.917969 C 309.578125 201.5 308.976562 200.125 308.375 198.746094 C 308.117188 198.144531 307.816406 197.585938 307.515625 197.027344 C 307.042969 196.164062 306.523438 195.433594 305.921875 194.660156 C 305.449219 194.058594 304.71875 193.582031 304.117188 193.109375 C 303.46875 192.59375 302.695312 192.292969 301.964844 191.992188 C 301.015625 191.605469 300.027344 191.347656 299.039062 191.347656 C 298.996094 191.304688 298.910156 191.304688 298.867188 191.304688 Z M 298.867188 191.304688 " fill-opacity="1" fill-rule="nonzero"/></g><path fill="rgb(81.959534%, 63.529968%, 51.759338%)" d="M 118.710938 30.570312 C 117.078125 30.65625 115.441406 30.957031 113.847656 31.34375 C 112.128906 31.816406 110.40625 32.550781 108.859375 33.410156 C 107.523438 34.097656 106.320312 35 105.15625 35.90625 C 104.769531 35.5625 104.382812 35.214844 103.953125 34.871094 C 102.664062 33.882812 101.371094 32.980469 99.867188 32.332031 C 99.089844 31.988281 98.273438 31.6875 97.457031 31.472656 C 96.464844 31.214844 95.433594 31.128906 94.445312 31.042969 C 92.808594 30.914062 91.132812 31.042969 89.496094 31.300781 C 87.6875 31.558594 86.011719 32.117188 84.332031 32.851562 C 80.417969 34.570312 77.191406 37.539062 74.824219 41.109375 C 73.660156 42.917969 72.84375 44.941406 72.070312 46.917969 C 71.339844 48.898438 70.863281 50.917969 70.5625 52.984375 C 69.832031 57.503906 69.832031 62.191406 70.304688 66.710938 C 70.433594 68.042969 70.605469 69.332031 70.820312 70.625 C 70.953125 71.355469 71.253906 72.042969 71.554688 72.6875 C 71.769531 73.164062 72.027344 73.636719 72.371094 74.066406 C 73.445312 75.570312 74.867188 76.90625 76.628906 77.507812 C 77.535156 76.304688 78.09375 74.796875 78.308594 73.292969 C 78.480469 72.171875 78.566406 71.097656 78.480469 69.980469 C 78.394531 68.945312 78.179688 67.871094 78.007812 66.839844 C 77.75 64.730469 77.621094 62.578125 77.535156 60.429688 C 77.449219 58.234375 77.535156 56.039062 77.792969 53.886719 C 78.179688 51.308594 78.824219 48.8125 79.773438 46.402344 C 80.332031 45.199219 80.976562 44.035156 81.75 42.960938 C 82.613281 41.886719 83.558594 40.894531 84.632812 40.035156 C 85.625 39.347656 86.65625 38.746094 87.730469 38.269531 C 88.9375 37.796875 90.140625 37.453125 91.390625 37.28125 C 92.636719 37.152344 93.882812 37.109375 95.132812 37.238281 C 95.90625 37.367188 96.636719 37.582031 97.371094 37.839844 C 98.402344 38.3125 99.347656 38.917969 100.253906 39.605469 C 100.425781 39.777344 100.640625 39.90625 100.8125 40.078125 C 99.867188 41.238281 99.003906 42.445312 98.230469 43.691406 C 97.285156 45.242188 96.507812 46.875 95.820312 48.511719 C 94.53125 51.695312 93.839844 55.09375 93.710938 58.535156 C 93.582031 61.804688 94.1875 65.03125 95.089844 68.171875 C 95.476562 69.503906 96.035156 70.882812 96.808594 72.042969 C 97.328125 72.820312 97.886719 73.421875 98.660156 73.980469 C 99.304688 74.496094 100.125 74.796875 100.898438 75.054688 C 101.628906 75.269531 102.445312 75.355469 103.179688 75.398438 C 103.953125 75.441406 104.8125 75.269531 105.546875 75.011719 C 107.265625 74.367188 108.816406 73.207031 110.019531 71.828125 C 114.753906 66.363281 114.152344 58.40625 112.902344 51.78125 C 112.601562 50.230469 112.300781 48.683594 111.828125 47.175781 C 111.3125 45.5 110.578125 43.863281 109.804688 42.273438 C 109.460938 41.582031 109.074219 40.894531 108.644531 40.25 C 108.859375 40.078125 109.03125 39.90625 109.246094 39.734375 C 110.535156 38.789062 111.914062 37.96875 113.375 37.324219 C 114.796875 36.765625 116.214844 36.378906 117.722656 36.164062 C 118.796875 36.035156 119.875 35.992188 120.949219 36.121094 C 121.722656 36.25 122.496094 36.464844 123.230469 36.765625 C 124.132812 37.195312 124.992188 37.667969 125.8125 38.269531 C 126.371094 38.746094 126.84375 39.21875 127.273438 39.777344 C 128.21875 41.152344 128.996094 42.617188 129.640625 44.164062 C 130.199219 45.628906 130.628906 47.132812 130.972656 48.640625 C 130.113281 49.070312 129.296875 49.542969 128.523438 50.101562 C 125.726562 51.996094 123.445312 54.492188 121.550781 57.289062 C 119.613281 60.167969 118.539062 63.570312 118.109375 67.011719 C 117.9375 68.429688 117.9375 69.851562 118.066406 71.269531 C 118.28125 73.035156 118.667969 74.710938 119.65625 76.175781 C 120.089844 76.820312 120.605469 77.464844 121.25 77.980469 C 121.59375 78.28125 121.9375 78.539062 122.324219 78.710938 C 122.972656 79.058594 123.359375 79.101562 124.046875 79.1875 C 124.777344 79.273438 125.507812 79.101562 126.199219 78.839844 C 127.015625 78.496094 127.789062 78.109375 128.523438 77.59375 C 129.769531 76.648438 130.757812 75.484375 131.707031 74.28125 C 132.824219 72.90625 133.726562 71.441406 134.460938 69.851562 C 135.148438 68.34375 135.664062 66.796875 136.09375 65.203125 C 136.523438 63.398438 136.738281 61.589844 136.910156 59.738281 C 137.128906 57.375 137.128906 55.050781 136.910156 52.683594 C 137.386719 52.554688 137.859375 52.46875 138.332031 52.382812 C 139.492188 52.253906 140.65625 52.210938 141.859375 52.296875 C 142.289062 52.382812 142.71875 52.511719 143.152344 52.640625 C 143.753906 52.941406 144.269531 53.242188 144.828125 53.628906 C 145.601562 54.277344 146.292969 54.964844 146.9375 55.738281 C 147.496094 56.511719 147.925781 57.375 148.3125 58.234375 C 149.132812 60.300781 149.691406 62.492188 150.035156 64.6875 C 150.378906 67.699219 150.378906 70.710938 150.035156 73.722656 C 149.605469 76.433594 148.917969 79.058594 147.882812 81.59375 C 146.980469 83.660156 145.820312 85.640625 144.441406 87.488281 C 143.28125 88.953125 141.988281 90.285156 140.527344 91.449219 C 139.792969 92.007812 139.019531 92.523438 138.203125 92.953125 C 137.082031 93.597656 136.007812 94.371094 135.019531 95.191406 C 135.0625 95.148438 135.105469 95.105469 135.191406 95.0625 C 134.113281 95.921875 133.125 96.910156 132.265625 97.945312 C 133.382812 99.320312 135.492188 99.40625 137.128906 99.234375 C 138.03125 99.148438 138.890625 98.933594 139.75 98.589844 C 140.226562 98.375 140.699219 98.203125 141.171875 97.902344 C 141.515625 97.6875 141.859375 97.46875 142.203125 97.210938 C 143.667969 96.222656 145.042969 95.0625 146.292969 93.8125 C 148.703125 91.40625 150.679688 88.566406 152.1875 85.554688 C 153.691406 82.542969 154.769531 79.316406 155.371094 76.046875 C 156.015625 72.601562 156.1875 69.074219 155.886719 65.589844 C 155.628906 62.320312 154.941406 59.050781 153.648438 55.996094 C 153.304688 55.222656 153.003906 54.449219 152.574219 53.714844 C 152.1875 52.984375 151.671875 52.339844 151.152344 51.695312 C 150.078125 50.359375 148.789062 49.242188 147.367188 48.253906 C 146.121094 47.390625 144.613281 46.789062 143.152344 46.53125 C 141.472656 46.230469 139.792969 46.273438 138.074219 46.445312 C 137.429688 46.53125 136.78125 46.617188 136.136719 46.746094 C 136.007812 46.101562 135.835938 45.457031 135.664062 44.8125 C 135.191406 43.175781 134.503906 41.582031 133.769531 40.035156 C 133.125 38.617188 132.308594 37.324219 131.363281 36.121094 C 130.371094 34.828125 129.125 33.839844 127.746094 32.9375 C 126.5 32.117188 125.035156 31.515625 123.617188 31.042969 C 122.324219 30.613281 120.949219 30.484375 119.570312 30.484375 C 119.441406 30.527344 119.097656 30.527344 118.710938 30.570312 Z M 104.726562 44.722656 C 105.15625 45.542969 105.589844 46.359375 105.976562 47.175781 C 106.492188 48.511719 106.921875 49.929688 107.222656 51.308594 C 107.609375 52.855469 107.910156 54.449219 108.125 56.039062 C 108.386719 58.234375 108.515625 60.472656 108.253906 62.707031 C 108.082031 63.742188 107.824219 64.730469 107.4375 65.675781 C 107.136719 66.320312 106.792969 66.925781 106.40625 67.527344 C 106.0625 67.957031 105.675781 68.300781 105.285156 68.6875 C 104.898438 68.945312 104.511719 69.203125 104.082031 69.417969 C 103.953125 69.460938 103.867188 69.503906 103.738281 69.503906 C 103.609375 69.503906 103.480469 69.503906 103.308594 69.503906 C 103.050781 69.460938 102.792969 69.375 102.53125 69.289062 C 102.445312 69.246094 102.402344 69.203125 102.316406 69.160156 C 102.230469 69.074219 102.1875 69.03125 102.101562 68.945312 C 101.886719 68.601562 101.714844 68.300781 101.542969 67.957031 C 101.199219 67.097656 100.984375 66.234375 100.726562 65.332031 C 100.46875 64.300781 100.210938 63.265625 100.082031 62.191406 C 99.867188 60.210938 99.867188 58.191406 100.082031 56.210938 C 100.425781 54.015625 101.027344 51.867188 101.84375 49.800781 C 102.621094 47.996094 103.609375 46.316406 104.726562 44.722656 Z M 131.878906 55.136719 C 131.921875 57.15625 131.792969 59.179688 131.578125 61.203125 C 131.273438 63.179688 130.800781 65.074219 130.070312 66.925781 C 129.511719 68.128906 128.867188 69.289062 128.089844 70.367188 C 127.402344 71.226562 126.628906 72.085938 125.769531 72.820312 C 125.550781 72.949219 125.335938 73.078125 125.121094 73.207031 C 124.992188 72.992188 124.863281 72.734375 124.734375 72.472656 C 124.5625 72 124.476562 71.570312 124.390625 71.097656 C 124.261719 69.851562 124.304688 68.601562 124.433594 67.355469 C 124.691406 65.847656 125.078125 64.386719 125.640625 62.964844 C 126.285156 61.589844 127.058594 60.296875 127.960938 59.050781 C 129.039062 57.71875 130.199219 56.554688 131.492188 55.480469 C 131.621094 55.308594 131.75 55.222656 131.878906 55.136719 Z M 148.011719 81.894531 C 148.011719 81.9375 147.96875 81.980469 147.96875 82.023438 C 147.96875 81.980469 147.96875 81.9375 148.011719 81.894531 Z M 148.011719 81.894531 " fill-opacity="1" fill-rule="nonzero"/><path fill="rgb(81.959534%, 63.529968%, 51.759338%)" d="M 126.371094 98.976562 C 122.800781 99.234375 119.269531 99.835938 115.785156 100.652344 C 112.386719 101.429688 109.160156 102.632812 105.976562 104.054688 C 103.050781 105.34375 100.253906 106.9375 97.671875 108.871094 C 96.292969 109.902344 94.960938 110.980469 93.710938 112.183594 C 92.378906 113.433594 91.21875 114.851562 90.140625 116.316406 C 89.152344 117.648438 88.335938 119.066406 87.6875 120.53125 C 86.785156 122.511719 86.140625 124.53125 85.925781 126.683594 C 85.839844 127.714844 85.96875 128.792969 86.269531 129.78125 C 86.613281 130.855469 87.171875 131.804688 87.945312 132.621094 C 88.550781 133.222656 89.324219 133.695312 90.097656 134.039062 C 90.613281 134.253906 91.042969 134.382812 91.605469 134.425781 C 92.292969 132.964844 92.507812 131.328125 92.9375 129.824219 C 93.238281 128.792969 93.410156 127.714844 93.625 126.640625 C 93.796875 125.695312 94.144531 124.746094 94.488281 123.84375 C 95.21875 122.25 96.121094 120.746094 97.15625 119.371094 C 98.660156 117.519531 100.425781 115.882812 102.273438 114.378906 C 105.242188 112.183594 108.429688 110.421875 111.828125 108.957031 C 116.386719 107.109375 121.207031 105.902344 126.070312 105.214844 C 128.390625 104.914062 130.714844 104.699219 133.039062 104.527344 C 135.320312 104.355469 137.601562 104.3125 139.878906 104.570312 C 140.785156 104.742188 141.644531 104.957031 142.503906 105.257812 C 142.894531 105.429688 143.238281 105.644531 143.582031 105.902344 C 143.839844 106.117188 144.054688 106.332031 144.269531 106.546875 C 144.441406 106.804688 144.613281 107.109375 144.742188 107.367188 C 144.914062 107.839844 145.085938 108.355469 145.214844 108.871094 C 145.257812 109.773438 145.085938 110.722656 145.085938 111.625 C 145.085938 112.183594 145.128906 112.785156 145.214844 113.347656 C 145.6875 113.347656 146.164062 113.261719 146.59375 113.132812 C 147.710938 112.742188 148.746094 112.140625 149.519531 111.238281 C 150.121094 110.550781 150.550781 109.773438 150.679688 108.871094 C 150.851562 107.839844 150.765625 106.847656 150.464844 105.859375 C 150.121094 104.914062 149.605469 104.097656 148.960938 103.277344 C 148.3125 102.503906 147.582031 101.902344 146.765625 101.300781 C 146.078125 100.785156 145.257812 100.4375 144.441406 100.09375 C 143.710938 99.792969 142.980469 99.578125 142.203125 99.40625 C 140.441406 98.976562 138.589844 98.847656 136.78125 98.804688 C 136.050781 98.761719 135.277344 98.761719 134.546875 98.761719 C 131.792969 98.589844 129.082031 98.761719 126.371094 98.976562 Z M 126.371094 98.976562 " fill-opacity="1" fill-rule="nonzero"/><g clip-path="url(#id2)"><path fill="rgb(81.959534%, 63.529968%, 51.759338%)" d="M 56.0625 48.167969 C 55.074219 48.210938 54.085938 48.46875 53.09375 48.769531 C 52.363281 48.984375 51.589844 49.285156 50.902344 49.585938 C 49.179688 50.316406 47.542969 51.136719 45.996094 52.167969 C 44.617188 53.113281 43.285156 54.191406 42.078125 55.351562 C 40.789062 56.597656 39.671875 58.019531 38.59375 59.4375 C 36.53125 62.148438 34.9375 65.160156 33.648438 68.300781 C 32.398438 71.355469 31.667969 74.582031 31.195312 77.808594 C 30.679688 81.25 30.546875 84.734375 30.765625 88.21875 C 30.851562 89.941406 31.109375 91.664062 31.496094 93.296875 C 31.925781 95.019531 32.65625 96.738281 33.429688 98.332031 C 34.894531 101.300781 37.089844 103.839844 39.585938 105.945312 C 41.046875 107.152344 42.597656 108.183594 44.230469 109.042969 C 44.144531 110.464844 44.230469 111.882812 44.359375 113.304688 C 44.488281 114.507812 44.660156 115.667969 44.960938 116.832031 C 45.308594 118.078125 45.824219 119.238281 46.382812 120.402344 C 47.371094 122.46875 48.792969 124.316406 50.46875 125.867188 C 52.105469 127.414062 54 128.707031 56.0625 129.609375 C 58.171875 130.511719 60.324219 131.242188 62.5625 131.671875 C 63.722656 131.890625 64.925781 132.0625 66.089844 132.191406 C 67.292969 132.363281 68.5 132.492188 69.703125 132.578125 C 72.199219 132.75 74.652344 132.664062 77.105469 132.320312 C 78.179688 132.191406 79.253906 131.976562 80.289062 131.628906 C 80.890625 131.414062 81.492188 131.15625 82.050781 130.855469 C 82.699219 130.511719 83.257812 130.039062 83.816406 129.566406 C 84.503906 129.007812 85.0625 128.316406 85.539062 127.585938 C 85.839844 127.070312 86.011719 126.511719 85.925781 125.910156 C 85.625 125.910156 85.324219 125.867188 84.976562 125.867188 C 83.644531 125.695312 82.351562 125.523438 81.019531 125.609375 C 80.117188 125.652344 79.167969 125.78125 78.265625 125.953125 C 77.878906 126.039062 77.492188 126.167969 77.0625 126.253906 C 76.675781 126.339844 76.328125 126.425781 75.941406 126.46875 C 72.84375 126.8125 69.746094 126.640625 66.605469 126.210938 C 65.359375 126.039062 64.152344 125.824219 62.949219 125.566406 C 61.65625 125.261719 60.367188 124.832031 59.160156 124.316406 C 58.042969 123.800781 56.96875 123.199219 55.933594 122.46875 C 55.03125 121.734375 54.214844 120.917969 53.4375 120.015625 C 52.75 119.066406 52.148438 118.035156 51.675781 116.960938 C 51.246094 115.882812 50.945312 114.808594 50.773438 113.648438 C 50.683594 113 50.640625 112.3125 50.640625 111.667969 C 51.375 111.882812 52.148438 112.054688 52.878906 112.183594 C 54.859375 112.527344 56.839844 112.699219 58.816406 112.355469 C 60.28125 112.097656 61.785156 111.582031 62.992188 110.679688 C 63.679688 110.164062 64.28125 109.601562 64.839844 108.914062 C 65.140625 108.527344 65.445312 108.140625 65.703125 107.710938 C 66.046875 107.195312 66.261719 106.589844 66.476562 106.03125 C 67.121094 104.484375 67.507812 102.890625 67.722656 101.257812 C 67.9375 99.449219 67.808594 97.558594 67.207031 95.835938 C 66.820312 94.847656 66.390625 93.984375 65.703125 93.167969 C 65.140625 92.480469 64.453125 91.964844 63.722656 91.40625 C 62.992188 90.886719 62.171875 90.585938 61.355469 90.242188 C 60.410156 89.855469 59.421875 89.726562 58.429688 89.597656 C 57.742188 89.511719 57.054688 89.511719 56.320312 89.597656 C 55.761719 89.683594 55.289062 89.726562 54.773438 89.855469 C 54.300781 89.984375 53.742188 90.242188 53.308594 90.457031 C 51.761719 91.1875 50.339844 92.351562 49.265625 93.683594 C 47.070312 96.351562 45.78125 99.621094 45.050781 102.976562 C 44.660156 102.71875 44.316406 102.460938 43.929688 102.203125 C 42.640625 101.171875 41.476562 100.007812 40.445312 98.71875 C 39.542969 97.46875 38.765625 96.09375 38.164062 94.71875 C 37.648438 93.382812 37.261719 92.007812 37.046875 90.585938 C 36.703125 87.402344 36.789062 84.175781 37.175781 81.035156 C 37.691406 77.59375 38.550781 74.195312 39.84375 70.96875 C 40.917969 68.601562 42.253906 66.363281 43.800781 64.257812 C 45.222656 62.492188 46.769531 60.859375 48.535156 59.4375 C 49.867188 58.449219 51.289062 57.632812 52.792969 56.941406 C 53.566406 56.640625 54.34375 56.382812 55.160156 56.125 C 55.675781 55.953125 56.191406 55.867188 56.710938 55.738281 C 57.355469 55.609375 57.957031 55.394531 58.558594 55.136719 C 60.28125 54.492188 62.085938 53.886719 63.59375 52.769531 C 63.292969 51.695312 62.5625 50.789062 61.742188 50.058594 C 60.324219 48.769531 58.386719 48.125 56.492188 48.125 C 56.363281 48.167969 56.191406 48.167969 56.0625 48.167969 Z M 58.300781 96.265625 C 58.730469 96.351562 59.117188 96.480469 59.550781 96.609375 C 59.894531 96.78125 60.238281 96.996094 60.539062 97.210938 C 60.667969 97.296875 60.753906 97.425781 60.882812 97.511719 C 60.96875 97.6875 61.097656 97.859375 61.183594 98.03125 C 61.3125 98.375 61.398438 98.71875 61.484375 99.0625 C 61.527344 99.792969 61.527344 100.480469 61.484375 101.214844 C 61.3125 102.246094 61.054688 103.234375 60.667969 104.226562 C 60.496094 104.570312 60.324219 104.871094 60.109375 105.171875 C 59.894531 105.429688 59.679688 105.644531 59.464844 105.859375 C 59.246094 105.988281 58.988281 106.117188 58.773438 106.246094 C 58.300781 106.417969 57.828125 106.546875 57.355469 106.632812 C 56.40625 106.71875 55.417969 106.675781 54.472656 106.546875 C 53.394531 106.375 52.363281 106.117188 51.332031 105.816406 C 51.632812 104.269531 52.019531 102.71875 52.621094 101.257812 C 53.09375 100.222656 53.65625 99.234375 54.300781 98.289062 C 54.6875 97.816406 55.117188 97.382812 55.589844 96.996094 C 55.933594 96.78125 56.234375 96.566406 56.625 96.394531 C 56.796875 96.351562 57.011719 96.265625 57.226562 96.222656 C 57.441406 96.222656 57.871094 96.222656 58.300781 96.265625 Z M 67.035156 126.253906 C 67.121094 126.253906 67.207031 126.296875 67.292969 126.296875 C 67.207031 126.253906 67.121094 126.253906 67.035156 126.253906 Z M 67.035156 126.253906 " fill-opacity="1" fill-rule="nonzero"/></g><g clip-path="url(#id3)"><path fill="rgb(81.959534%, 63.529968%, 51.759338%)" d="M 74.4375 242.972656 C 73.53125 244.480469 73.273438 246.328125 73.273438 248.050781 C 73.273438 248.78125 73.402344 249.46875 73.53125 250.203125 C 73.617188 250.761719 73.789062 251.277344 74.007812 251.792969 C 74.480469 252.957031 74.910156 254.117188 75.296875 255.320312 C 76.71875 259.625 77.664062 264.097656 78.308594 268.617188 C 78.609375 271.152344 78.824219 273.734375 79.039062 276.273438 C 79.253906 278.984375 79.296875 281.695312 78.996094 284.363281 C 78.78125 285.652344 78.4375 286.898438 78.007812 288.105469 C 77.707031 288.75 77.40625 289.351562 77.0625 289.953125 C 76.976562 289.738281 76.890625 289.566406 76.804688 289.351562 C 76.242188 288.105469 75.683594 286.855469 74.953125 285.695312 C 74.523438 285.007812 74.007812 284.363281 73.488281 283.714844 C 72.886719 283.027344 72.15625 282.46875 71.425781 281.910156 C 70.863281 281.480469 70.261719 281.179688 69.617188 280.878906 C 68.84375 280.53125 68.113281 280.230469 67.292969 280.101562 C 66.820312 280.015625 66.347656 279.972656 65.875 279.972656 C 65.402344 279.972656 64.925781 280.101562 64.453125 280.144531 C 64.152344 280.1875 63.851562 280.316406 63.550781 280.402344 C 62.992188 280.617188 62.433594 280.835938 61.914062 281.136719 C 61.269531 281.480469 60.625 281.996094 60.109375 282.554688 C 59.421875 283.285156 58.988281 284.148438 58.644531 285.050781 C 58.386719 285.652344 58.214844 286.296875 58.085938 286.941406 C 58 287.460938 57.914062 288.019531 57.914062 288.535156 C 57.871094 289.179688 58 289.910156 58.128906 290.558594 C 58.386719 292.191406 58.859375 293.742188 59.550781 295.246094 C 60.238281 296.710938 61.226562 298.085938 62.347656 299.289062 C 63.464844 300.496094 64.96875 301.269531 66.5625 301.613281 C 68.371094 302.042969 70.347656 301.957031 72.113281 301.441406 C 72.542969 301.3125 72.929688 301.140625 73.316406 300.96875 C 73.359375 301.828125 73.359375 302.691406 73.273438 303.550781 C 73.144531 304.367188 72.929688 305.183594 72.628906 306.003906 C 72.328125 306.605469 71.984375 307.207031 71.554688 307.765625 C 71.210938 308.152344 70.863281 308.539062 70.476562 308.886719 C 69.660156 309.488281 68.757812 309.960938 67.808594 310.390625 C 67.207031 310.605469 66.605469 310.777344 66.003906 310.90625 C 65.617188 310.949219 65.273438 310.949219 64.882812 310.90625 C 63.851562 310.691406 62.863281 310.261719 61.828125 310.046875 C 61.355469 309.917969 60.882812 309.875 60.367188 309.832031 C 60.453125 309.832031 60.582031 309.875 60.667969 309.875 C 60.195312 309.832031 59.765625 309.789062 59.289062 309.789062 C 59.074219 311.292969 59.59375 312.800781 60.28125 314.089844 C 60.496094 314.476562 60.796875 314.820312 61.097656 315.167969 C 61.3125 315.425781 61.570312 315.640625 61.828125 315.855469 C 62.214844 316.199219 62.5625 316.414062 63.035156 316.628906 C 63.722656 316.929688 64.195312 317.058594 64.96875 317.144531 C 65.875 317.230469 66.820312 317.058594 67.722656 316.84375 C 68.757812 316.628906 69.703125 316.199219 70.648438 315.769531 C 72.070312 315.125 73.402344 314.261719 74.609375 313.316406 C 75.167969 312.886719 75.597656 312.371094 76.070312 311.808594 C 76.675781 311.078125 77.234375 310.261719 77.707031 309.445312 C 79.382812 306.390625 79.773438 302.820312 79.339844 299.421875 C 79.253906 298.773438 79.167969 298.085938 79.039062 297.441406 C 79.558594 296.96875 80.074219 296.453125 80.546875 295.890625 C 82.785156 293.355469 84.417969 290.300781 85.324219 287.03125 C 85.753906 285.394531 85.96875 283.671875 86.140625 281.996094 C 86.3125 280.1875 86.3125 278.425781 86.3125 276.617188 C 86.226562 273.175781 86.011719 269.734375 85.582031 266.292969 C 85.105469 262.679688 84.417969 259.109375 83.515625 255.578125 C 83.085938 253.988281 82.570312 252.394531 82.007812 250.847656 C 81.664062 249.902344 81.277344 248.910156 80.847656 248.007812 C 80.675781 247.621094 80.417969 247.320312 80.160156 246.976562 C 79.730469 246.414062 79.296875 245.898438 78.824219 245.382812 C 78.179688 244.738281 77.449219 244.179688 76.628906 243.707031 C 75.898438 243.402344 75.167969 243.144531 74.4375 242.972656 Z M 66.089844 286.339844 C 66.304688 286.382812 66.519531 286.46875 66.734375 286.511719 C 67.207031 286.726562 67.636719 287.03125 68.070312 287.332031 C 68.457031 287.675781 68.800781 288.019531 69.101562 288.363281 C 69.960938 289.609375 70.648438 290.988281 71.253906 292.40625 C 71.554688 293.183594 71.8125 293.957031 72.027344 294.730469 C 71.640625 294.945312 71.253906 295.117188 70.863281 295.289062 C 70.433594 295.460938 70.003906 295.589844 69.574219 295.675781 C 69.144531 295.71875 68.757812 295.675781 68.328125 295.675781 C 68.023438 295.632812 67.722656 295.546875 67.421875 295.460938 C 67.292969 295.375 67.164062 295.332031 67.078125 295.246094 C 66.777344 294.988281 66.519531 294.6875 66.261719 294.386719 C 65.789062 293.742188 65.402344 293.09375 65.054688 292.40625 C 64.667969 291.417969 64.410156 290.429688 64.238281 289.394531 C 64.195312 289.050781 64.195312 288.707031 64.238281 288.363281 C 64.324219 288.019531 64.410156 287.675781 64.539062 287.332031 C 64.582031 287.203125 64.667969 287.074219 64.753906 286.988281 C 64.796875 286.945312 64.839844 286.898438 64.882812 286.855469 C 65.054688 286.769531 65.230469 286.640625 65.402344 286.554688 C 65.574219 286.511719 65.789062 286.425781 65.960938 286.382812 C 65.960938 286.339844 66.046875 286.339844 66.089844 286.339844 Z M 66.089844 286.339844 " fill-opacity="1" fill-rule="nonzero"/></g><path fill="rgb(81.959534%, 63.529968%, 51.759338%)" d="M 287.335938 243.359375 C 286.558594 243.75 285.871094 244.308594 285.226562 244.867188 C 284.839844 245.210938 284.453125 245.726562 284.152344 246.15625 C 283.847656 246.585938 283.589844 246.976562 283.375 247.449219 C 281.914062 250.675781 281.226562 254.203125 280.707031 257.6875 C 280.449219 259.539062 280.234375 261.386719 280.105469 263.238281 C 279.976562 265.042969 279.933594 266.894531 279.890625 268.703125 C 279.804688 272.144531 279.804688 275.542969 280.191406 278.941406 C 280.363281 280.660156 280.664062 282.382812 281.183594 284.019531 C 281.742188 285.738281 282.515625 287.375 283.503906 288.878906 C 284.367188 290.257812 285.484375 291.460938 286.730469 292.492188 C 287.121094 292.835938 287.507812 293.09375 287.9375 293.398438 C 288.367188 293.699219 288.839844 293.871094 289.269531 294.042969 C 289.613281 294.171875 289.917969 294.257812 290.261719 294.34375 C 290.261719 294.816406 290.304688 295.289062 290.304688 295.761719 C 290.347656 297.011719 290.476562 298.300781 290.5625 299.550781 C 290.648438 300.667969 290.691406 301.785156 290.734375 302.90625 C 290.820312 304.796875 290.863281 306.691406 290.691406 308.582031 C 290.476562 309.660156 290.132812 310.691406 289.789062 311.722656 C 289.398438 312.800781 289.011719 313.917969 288.582031 314.953125 C 288.496094 315.167969 288.367188 315.425781 288.28125 315.640625 C 288.324219 315.554688 288.324219 315.511719 288.367188 315.425781 C 288.238281 315.769531 288.109375 316.070312 287.980469 316.414062 C 288.539062 316.714844 289.097656 316.800781 289.703125 316.886719 C 290.347656 316.972656 291.078125 316.800781 291.679688 316.585938 C 292.542969 316.285156 293.230469 315.855469 293.917969 315.296875 C 295.335938 314.21875 296.113281 312.628906 296.5 310.90625 C 296.886719 309.058594 296.929688 307.121094 296.886719 305.269531 C 296.84375 302.5625 296.671875 299.894531 296.542969 297.183594 C 296.5 296.234375 296.457031 295.289062 296.457031 294.34375 C 296.457031 294.085938 296.457031 293.828125 296.457031 293.527344 C 296.542969 293.484375 296.628906 293.441406 296.714844 293.355469 C 298.21875 292.40625 299.511719 291.074219 300.414062 289.523438 C 300.84375 288.792969 301.191406 287.976562 301.492188 287.203125 C 301.75 286.511719 302.007812 285.867188 302.222656 285.179688 C 302.695312 283.628906 302.953125 281.953125 303.210938 280.359375 C 303.46875 278.597656 303.640625 276.746094 303.339844 274.941406 C 303.210938 274.164062 302.953125 273.433594 302.609375 272.703125 C 302.136719 271.757812 301.40625 271.066406 300.542969 270.550781 C 299.683594 270.035156 298.738281 269.863281 297.746094 269.777344 C 297.660156 269.777344 297.574219 269.777344 297.488281 269.820312 C 297.101562 269.820312 296.757812 269.90625 296.371094 269.992188 C 295.941406 270.121094 295.511719 270.335938 295.121094 270.59375 C 293.53125 271.671875 292.410156 273.347656 291.765625 275.113281 C 291.25 276.488281 290.949219 277.953125 290.734375 279.414062 C 290.433594 281.265625 290.347656 283.15625 290.21875 285.050781 C 290.175781 285.824219 290.175781 286.597656 290.175781 287.417969 C 289.917969 287.160156 289.660156 286.898438 289.398438 286.597656 C 288.796875 285.78125 288.324219 284.921875 287.894531 284.019531 C 287.421875 282.855469 287.121094 281.652344 286.90625 280.359375 C 286.558594 277.304688 286.644531 274.207031 286.863281 271.109375 C 287.035156 267.925781 287.25 264.742188 287.636719 261.558594 C 288.109375 258.203125 288.753906 254.933594 289.875 251.75 C 290.132812 251.019531 290.433594 250.332031 290.648438 249.597656 C 290.949219 248.609375 291.035156 247.535156 291.207031 246.5 C 291.378906 245.125 291.292969 243.621094 290.863281 242.328125 C 290.863281 242.328125 290.863281 242.328125 290.820312 242.328125 C 289.527344 242.414062 288.410156 242.84375 287.335938 243.359375 Z M 287.335938 243.359375 " fill-opacity="1" fill-rule="nonzero"/><path fill="rgb(81.959534%, 63.529968%, 51.759338%)" d="M 193.792969 96.910156 C 190.996094 96.953125 188.242188 96.996094 185.445312 97.039062 C 184.199219 97.039062 182.90625 97.125 181.660156 97.167969 C 179.851562 97.253906 178.046875 97.339844 176.28125 97.511719 C 172.667969 97.816406 169.054688 98.332031 165.480469 99.019531 C 158.683594 100.308594 151.972656 102.546875 145.820312 105.816406 C 144.441406 106.546875 143.066406 107.367188 141.773438 108.269531 C 140.269531 109.34375 138.804688 110.550781 137.386719 111.753906 C 136.78125 112.269531 136.222656 112.742188 135.707031 113.347656 C 135.105469 114.078125 134.589844 114.851562 134.15625 115.710938 C 133.511719 117.175781 133.039062 118.722656 133.125 120.316406 C 133.125 120.574219 133.167969 120.832031 133.210938 121.089844 C 135.320312 121.433594 137.429688 120.746094 139.320312 119.84375 C 140.65625 119.195312 141.730469 118.164062 142.847656 117.175781 C 143.667969 116.488281 144.441406 115.796875 145.300781 115.152344 C 148.3125 112.914062 151.628906 111.195312 155.027344 109.730469 C 161.394531 107.109375 168.105469 105.515625 174.949219 104.527344 C 180.542969 103.796875 186.179688 103.621094 191.816406 103.363281 C 193.449219 103.277344 195.042969 103.234375 196.675781 103.148438 C 198.785156 103.0625 200.9375 103.0625 203.085938 103.105469 C 205.453125 103.148438 207.820312 103.320312 210.1875 103.621094 C 212.511719 103.96875 214.835938 104.398438 217.113281 105.042969 C 219.523438 105.6875 221.890625 106.546875 224.214844 107.496094 C 226.191406 108.355469 228.128906 109.300781 229.980469 110.378906 C 231.871094 111.453125 233.679688 112.65625 235.402344 113.949219 C 236.089844 114.507812 236.777344 115.066406 237.507812 115.539062 C 238.285156 116.011719 239.144531 116.402344 240.003906 116.703125 C 241.296875 117.175781 242.757812 117.476562 244.136719 117.433594 C 244.308594 116.230469 243.921875 115.066406 243.402344 113.992188 C 242.886719 112.914062 242.113281 111.925781 241.296875 111.109375 C 240.648438 110.421875 239.875 109.902344 239.101562 109.386719 C 238.199219 108.742188 237.25 108.097656 236.304688 107.496094 C 233.464844 105.644531 230.496094 104.097656 227.398438 102.71875 C 224.171875 101.300781 220.816406 100.050781 217.414062 99.148438 C 213.929688 98.203125 210.359375 97.6875 206.832031 97.296875 C 203.949219 96.996094 201.023438 96.910156 198.097656 96.910156 C 196.632812 96.867188 195.214844 96.910156 193.792969 96.910156 Z M 193.792969 96.910156 " fill-opacity="1" fill-rule="nonzero"/><path fill="rgb(81.959534%, 63.529968%, 51.759338%)" d="M 111.785156 121.820312 C 109.933594 121.992188 108.082031 122.425781 106.277344 122.898438 C 104.597656 123.371094 102.964844 124.015625 101.371094 124.746094 C 99.695312 125.523438 98.058594 126.296875 96.421875 127.15625 C 95.304688 127.757812 94.144531 128.402344 93.066406 129.09375 C 91.820312 129.910156 90.613281 130.640625 89.367188 131.457031 C 88.074219 132.320312 86.785156 133.179688 85.496094 134.082031 C 82.570312 136.234375 79.773438 138.558594 77.0625 141.054688 C 74.566406 143.332031 72.285156 145.914062 70.175781 148.667969 C 67.9375 151.550781 66.003906 154.734375 64.195312 158.003906 C 62.476562 161.144531 61.011719 164.371094 59.679688 167.726562 C 58.300781 171.253906 57.097656 174.78125 56.148438 178.441406 C 55.246094 182.011719 54.558594 185.710938 54.085938 189.367188 C 53.828125 191.261719 53.65625 193.195312 53.523438 195.132812 C 53.4375 196.335938 53.308594 197.457031 53.265625 198.660156 C 53.179688 200.339844 53.136719 201.972656 53.050781 203.652344 C 52.921875 206.277344 52.878906 208.855469 52.921875 211.480469 C 53.007812 216.085938 53.480469 220.644531 54.773438 225.035156 C 55.246094 226.710938 55.890625 228.347656 56.539062 229.9375 C 56.839844 230.667969 57.140625 231.359375 57.484375 232.089844 C 58.34375 233.851562 59.59375 235.273438 61.097656 236.390625 C 62.128906 237.164062 63.378906 237.726562 64.625 237.855469 C 65.273438 235.917969 64.96875 233.679688 64.496094 231.746094 C 64.410156 231.359375 64.28125 230.925781 64.109375 230.539062 C 63.851562 229.722656 63.507812 229.035156 63.121094 228.261719 C 62.519531 227.011719 61.957031 225.851562 61.441406 224.558594 C 60.496094 221.9375 59.851562 219.269531 59.507812 216.472656 C 59.203125 213.460938 59.160156 210.535156 59.203125 207.523438 C 59.203125 205.84375 59.246094 204.210938 59.289062 202.53125 C 59.332031 200.855469 59.375 199.175781 59.507812 197.5 C 59.679688 195.390625 59.808594 193.28125 60.023438 191.175781 C 60.882812 184.679688 62.390625 178.355469 64.625 172.289062 C 66.90625 166.4375 69.789062 160.886719 73.273438 155.808594 C 75.941406 152.066406 79.082031 148.753906 82.441406 145.785156 C 84.632812 143.933594 86.914062 142.214844 89.28125 140.621094 C 90.355469 139.890625 91.433594 139.246094 92.507812 138.601562 C 93.753906 137.824219 94.960938 137.136719 96.207031 136.363281 C 97.972656 135.332031 99.78125 134.382812 101.585938 133.523438 C 103.136719 132.792969 104.683594 132.191406 106.277344 131.628906 C 107.953125 131.070312 109.71875 130.640625 111.484375 130.339844 C 112.300781 130.253906 113.117188 130.167969 113.890625 129.910156 C 114.925781 129.652344 115.871094 129.179688 116.816406 128.707031 C 118.023438 128.144531 119.183594 127.15625 120.003906 125.996094 C 119.355469 124.917969 118.410156 124.058594 117.421875 123.328125 C 116.6875 122.8125 115.828125 122.425781 115.011719 122.121094 C 114.667969 121.992188 114.28125 121.949219 113.890625 121.820312 C 113.332031 121.734375 112.816406 121.691406 112.300781 121.691406 C 112.214844 121.820312 112 121.820312 111.785156 121.820312 Z M 111.785156 121.820312 " fill-opacity="1" fill-rule="nonzero"/><path fill="rgb(81.959534%, 63.529968%, 51.759338%)" d="M 124.820312 116.273438 C 124.175781 116.617188 123.488281 116.960938 122.84375 117.390625 C 122.195312 117.863281 121.550781 118.335938 120.992188 118.9375 C 119.613281 120.359375 118.453125 122.207031 118.195312 124.230469 C 120.089844 125.132812 122.195312 125.089844 124.21875 124.789062 C 125.8125 124.53125 127.230469 123.714844 128.652344 122.941406 C 131.316406 121.476562 133.554688 118.636719 133.898438 115.539062 C 132.824219 115.109375 131.664062 114.9375 130.5 114.894531 C 130.414062 114.894531 130.328125 114.894531 130.242188 114.894531 C 128.347656 114.851562 126.5 115.410156 124.820312 116.273438 Z M 124.820312 116.273438 " fill-opacity="1" fill-rule="nonzero"/><g fill="rgb(100%, 100%, 100%)" fill-opacity="1"><g transform="translate(101.184971, 324.980448)"><g><path d="M 28.550781 -44.964844 C 28.550781 -47.550781 26.960938 -49.441406 23.976562 -49.441406 C 21.984375 -49.441406 20.195312 -48.84375 16.8125 -47.550781 L 5.769531 -43.273438 C 3.382812 -42.328125 2.6875 -41.582031 2.6875 -39.992188 C 2.6875 -38.648438 3.28125 -37.800781 4.675781 -37.355469 L 5.769531 -37.007812 C 6.914062 -36.660156 7.460938 -35.960938 7.460938 -33.824219 L 7.460938 -10.445312 C 7.460938 -7.757812 7.113281 -6.914062 6.117188 -6.464844 L 5.023438 -5.96875 C 3.480469 -5.273438 2.886719 -4.328125 2.886719 -2.984375 C 2.886719 -1.09375 4.027344 0 6.664062 0 L 28.699219 0 C 31.386719 0 32.53125 -1.09375 32.53125 -3.183594 C 32.53125 -4.425781 32.03125 -5.273438 30.886719 -5.917969 L 29.894531 -6.464844 C 28.898438 -7.011719 28.550781 -7.757812 28.550781 -10.445312 L 28.550781 -34.421875 C 30.339844 -36.011719 32.679688 -36.90625 34.867188 -36.90625 C 38.398438 -36.90625 40.191406 -34.769531 40.191406 -30.539062 L 40.191406 -10.445312 C 40.191406 -7.757812 39.839844 -7.011719 38.847656 -6.464844 L 37.851562 -5.917969 C 36.707031 -5.273438 36.210938 -4.425781 36.210938 -3.183594 C 36.210938 -1.09375 37.355469 0 40.039062 0 L 61.429688 0 C 64.113281 0 65.257812 -1.09375 65.257812 -3.183594 C 65.257812 -4.425781 64.761719 -5.273438 63.617188 -5.917969 L 62.621094 -6.464844 C 61.628906 -7.011719 61.28125 -7.757812 61.28125 -10.445312 L 61.28125 -33.523438 C 61.28125 -33.824219 61.28125 -34.121094 61.28125 -34.421875 C 63.070312 -36.011719 65.40625 -36.90625 67.597656 -36.90625 C 71.128906 -36.90625 72.917969 -34.769531 72.917969 -30.539062 L 72.917969 -10.445312 C 72.917969 -7.757812 72.570312 -7.011719 71.574219 -6.464844 L 70.582031 -5.917969 C 69.4375 -5.273438 68.941406 -4.425781 68.941406 -3.183594 C 68.941406 -1.09375 70.082031 0 72.769531 0 L 94.804688 0 C 97.441406 0 98.585938 -1.09375 98.585938 -2.984375 C 98.585938 -4.328125 97.988281 -5.273438 96.445312 -5.96875 L 95.351562 -6.464844 C 94.355469 -6.914062 94.007812 -7.757812 94.007812 -10.445312 L 94.007812 -33.523438 C 94.007812 -42.976562 88.289062 -49.441406 79.433594 -49.441406 C 74.164062 -49.441406 68.441406 -46.855469 60.382812 -39.59375 C 58.445312 -45.660156 53.46875 -49.441406 46.707031 -49.441406 C 41.632812 -49.441406 36.160156 -47.054688 28.550781 -40.4375 Z M 28.550781 -44.964844 "/></g></g></g><g fill="rgb(100%, 100%, 100%)" fill-opacity="1"><g transform="translate(191.606445, 324.980448)"><g><path d="M 28.550781 -70.628906 C 28.550781 -73.21875 26.960938 -75.105469 23.976562 -75.105469 C 21.984375 -75.105469 20.195312 -74.511719 16.8125 -73.21875 L 5.769531 -68.941406 C 3.382812 -67.996094 2.6875 -67.25 2.6875 -65.65625 C 2.6875 -64.3125 3.28125 -63.46875 4.675781 -63.019531 L 5.769531 -62.671875 C 6.914062 -62.324219 7.460938 -61.628906 7.460938 -59.488281 L 7.460938 -10.445312 C 7.460938 -7.757812 7.113281 -6.914062 6.117188 -6.464844 L 5.023438 -5.96875 C 3.480469 -5.273438 2.886719 -4.328125 2.886719 -2.984375 C 2.886719 -1.09375 4.027344 0 6.664062 0 L 28.699219 0 C 31.386719 0 32.53125 -1.09375 32.53125 -3.183594 C 32.53125 -4.425781 32.03125 -5.273438 30.886719 -5.917969 L 29.894531 -6.464844 C 28.898438 -7.011719 28.550781 -7.757812 28.550781 -10.445312 L 28.550781 -34.421875 C 30.339844 -36.011719 32.929688 -36.90625 35.117188 -36.90625 C 38.648438 -36.90625 40.6875 -34.769531 40.6875 -30.539062 L 40.6875 -10.445312 C 40.6875 -7.757812 40.339844 -7.011719 39.34375 -6.464844 L 38.347656 -5.917969 C 37.207031 -5.273438 36.707031 -4.425781 36.707031 -3.183594 C 36.707031 -1.09375 37.851562 0 40.539062 0 L 62.574219 0 C 65.210938 0 66.351562 -1.09375 66.351562 -2.984375 C 66.351562 -4.328125 65.757812 -5.273438 64.214844 -5.96875 L 63.121094 -6.464844 C 62.125 -6.914062 61.777344 -7.757812 61.777344 -10.445312 L 61.777344 -33.523438 C 61.777344 -42.976562 55.808594 -49.441406 46.953125 -49.441406 C 41.882812 -49.441406 36.210938 -47.054688 28.550781 -40.390625 Z M 28.550781 -70.628906 "/></g></g></g></svg>